# File generated by FabConvert.com - Free Image and 3D model conversion tools

mtllib Intersection.mtl

o obj1
v -6.90770006 -3.25769997 -7.94689989
v -8.9616003 -3.25769997 -7.94689989
v -8.9616003 -3.25769997 -5.81239986
v -6.90770006 -3.25769997 -5.81239986
usemtl mat4
f 1 2 3
f 1 3 4
# Vertices: 4, normals: 0, texture coordinates: 0, faces: 2

o obj2
v -8.9612999 -3.38890004 -7.96540022
v -8.9612999 -3.38890004 9.17790031
v 8.11439991 -3.38890004 9.17790031
v 8.11439991 -3.38890004 -7.96540022
usemtl mat4
f 5 6 7
f 5 7 8
# Vertices: 4, normals: 0, texture coordinates: 0, faces: 2

o obj3
v 2.88499999 -3.37770009 -4.52019978
v 2.88499999 -3.37770009 -7.10449982
v 2.6716001 -3.37770009 -7.10449982
v 2.6716001 -3.37770009 -4.52019978
usemtl mat4
f 9 10 11
f 9 11 12
# Vertices: 4, normals: 0, texture coordinates: 0, faces: 2

o obj4
v 8.11470032 -3.37770009 0.48449999
v 1.64030004 -3.37770009 0.48449999
v 1.64030004 -3.37770009 0.6979
v 8.11470032 -3.37770009 0.6979
usemtl mat4
f 13 14 15
f 13 15 16
# Vertices: 4, normals: 0, texture coordinates: 0, faces: 2

o obj5
v 7.27229977 -3.37770009 3.68630004
v 4.6880002 -3.37770009 3.68630004
v 4.6880002 -3.37770009 3.89969993
v 7.27229977 -3.37770009 3.89969993
usemtl mat4
f 17 18 19
f 17 19 20
# Vertices: 4, normals: 0, texture coordinates: 0, faces: 2

o obj6
v 5.94129992 -3.10820007 -5.7736001
v 8.11470032 -3.10820007 -5.7736001
v 8.11470032 -3.10820007 -5.9678998
v 6.13560009 -3.10820007 -5.9678998
v 6.13560009 -3.40479994 -5.9678998
v 6.13560009 -3.40479994 -7.94689989
v 6.13560009 -3.10820007 -7.94689989
v 8.11470032 -3.40479994 -5.9678998
v 5.94129992 -3.38890004 -5.7736001
v 5.94129992 -3.10820007 -7.94689989
v 5.94129992 -3.38890004 -7.94689989
v 8.11470032 -3.38890004 -5.7736001
usemtl mat4
f 21 22 23
f 21 23 24
f 24 25 26
f 24 26 27
f 24 23 28
f 24 28 25
f 29 21 30
f 29 30 31
f 22 21 29
f 22 29 32
f 21 24 27
f 21 27 30
# Vertices: 12, normals: 0, texture coordinates: 0, faces: 12

o obj7
v 7.27229977 -3.37770009 -2.71729994
v 4.6880002 -3.37770009 -2.71729994
v 4.6880002 -3.37770009 -2.50390005
v 7.27229977 -3.37770009 -2.50390005
usemtl mat4
f 33 34 35
f 33 35 36
# Vertices: 4, normals: 0, texture coordinates: 0, faces: 2

o obj8
v 6.06080008 -3.25769997 -7.94689989
v 6.06080008 -3.25769997 -5.81239986
v 8.11470032 -3.25769997 -5.81239986
v 8.11470032 -3.25769997 -7.94689989
usemtl mat4
f 37 38 39
f 37 39 40
# Vertices: 4, normals: 0, texture coordinates: 0, faces: 2

o obj9
v -0.5302 -3.37770009 -2.20919991
v -0.3168 -3.37770009 -2.20919991
v -0.3168 -3.37770009 -7.94689989
v -0.5302 -3.37770009 -7.94689989
usemtl mat4
f 41 42 43
f 41 43 44
# Vertices: 4, normals: 0, texture coordinates: 0, faces: 2

o obj10
v -3.73200011 -3.37770009 -4.52019978
v -3.51859999 -3.37770009 -4.52019978
v -3.51859999 -3.37770009 -7.10449982
v -3.73200011 -3.37770009 -7.10449982
usemtl mat4
f 45 46 47
f 45 47 48
# Vertices: 4, normals: 0, texture coordinates: 0, faces: 2

o obj11
v -8.9616003 -3.37770009 0.48449999
v -8.9616003 -3.37770009 0.6979
v -2.48720002 -3.37770009 0.6979
v -2.48720002 -3.37770009 0.48449999
usemtl mat4
f 49 50 51
f 49 51 52
# Vertices: 4, normals: 0, texture coordinates: 0, faces: 2

o obj12
v -8.11919975 -3.37770009 3.68630004
v -8.11919975 -3.37770009 3.89969993
v -5.53490019 -3.37770009 3.89969993
v -5.53490019 -3.37770009 3.68630004
usemtl mat4
f 53 54 55
f 53 55 56
# Vertices: 4, normals: 0, texture coordinates: 0, faces: 2

o obj13
v -6.78830004 -3.10820007 -5.7736001
v -6.98269987 -3.10820007 -5.9678998
v -8.9616003 -3.10820007 -5.9678998
v -8.9616003 -3.10820007 -5.7736001
v -6.98269987 -3.10820007 -7.94689989
v -6.98269987 -3.40479994 -7.94689989
v -6.98269987 -3.40479994 -5.9678998
v -8.9616003 -3.40479994 -5.9678998
v -6.78830004 -3.38890004 -5.7736001
v -6.78830004 -3.38890004 -7.94689989
v -6.78830004 -3.10820007 -7.94689989
v -8.9616003 -3.38890004 -5.7736001
usemtl mat4
f 57 58 59
f 57 59 60
f 58 61 62
f 58 62 63
f 58 63 64
f 58 64 59
f 65 66 67
f 65 67 57
f 60 68 65
f 60 65 57
f 57 67 61
f 57 61 58
# Vertices: 12, normals: 0, texture coordinates: 0, faces: 12

o obj14
v -8.11919975 -3.37770009 -2.71729994
v -8.11919975 -3.37770009 -2.50390005
v -5.53490019 -3.37770009 -2.50390005
v -5.53490019 -3.37770009 -2.71729994
usemtl mat4
f 69 70 71
f 69 71 72
# Vertices: 4, normals: 0, texture coordinates: 0, faces: 2

o obj15
v -6.90770006 -3.25769997 7.02759981
v -8.9616003 -3.25769997 7.02759981
v -8.9616003 -3.25769997 9.16209984
v -6.90770006 -3.25769997 9.16209984
usemtl mat4
f 73 74 75
f 73 75 76
# Vertices: 4, normals: 0, texture coordinates: 0, faces: 2

o obj16
v 8.11079979 -3.25769997 7.02759981
v 6.05700016 -3.25769997 7.02759981
v 6.05700016 -3.25769997 9.16209984
v 8.11079979 -3.25769997 9.16209984
usemtl mat4
f 77 78 79
f 77 79 80
# Vertices: 4, normals: 0, texture coordinates: 0, faces: 2

o obj17
v 5.93389988 -3.10820007 6.98120022
v 5.93389988 -3.10820007 9.15460014
v 6.12830019 -3.10820007 9.15460014
v 6.12830019 -3.10820007 7.17549992
v 6.12830019 -3.40479994 7.17549992
v 8.10719967 -3.40479994 7.17549992
v 8.10719967 -3.10820007 7.17549992
v 6.12830019 -3.40479994 9.15460014
v 5.93389988 -3.38890004 6.98120022
v 8.10719967 -3.10820007 6.98120022
v 8.10719967 -3.38890004 6.98120022
v 5.93389988 -3.38890004 9.15460014
usemtl mat4
f 81 82 83
f 81 83 84
f 84 85 86
f 84 86 87
f 84 83 88
f 84 88 85
f 89 81 90
f 89 90 91
f 82 81 89
f 82 89 92
f 81 84 87
f 81 87 90
# Vertices: 12, normals: 0, texture coordinates: 0, faces: 12

o obj18
v -6.7519002 -3.10820007 6.97410011
v -8.92529964 -3.10820007 6.97410011
v -8.92529964 -3.10820007 7.16849995
v -6.94619989 -3.10820007 7.16849995
v -6.94619989 -3.40479994 7.16849995
v -6.94619989 -3.40479994 9.1473999
v -6.94619989 -3.10820007 9.1473999
v -8.92529964 -3.40479994 7.16849995
v -6.7519002 -3.38890004 6.97410011
v -6.7519002 -3.10820007 9.1473999
v -6.7519002 -3.38890004 9.1473999
v -8.92529964 -3.38890004 6.97410011
usemtl mat4
f 93 94 95
f 93 95 96
f 96 97 98
f 96 98 99
f 96 95 100
f 96 100 97
f 101 93 102
f 101 102 103
f 94 93 101
f 94 101 104
f 93 96 99
f 93 99 102
# Vertices: 12, normals: 0, texture coordinates: 0, faces: 12

o obj19
v -0.5302 -3.37770009 9.19439983
v -0.3168 -3.37770009 9.19439983
v -0.3168 -3.37770009 3.45670009
v -0.5302 -3.37770009 3.45670009
usemtl mat4
f 105 106 107
f 105 107 108
# Vertices: 4, normals: 0, texture coordinates: 0, faces: 2

o obj20
v 2.88499999 -3.37770009 7.77169991
v 2.88499999 -3.37770009 5.18739986
v 2.6716001 -3.37770009 5.18739986
v 2.6716001 -3.37770009 7.77169991
usemtl mat4
f 109 110 111
f 109 111 112
# Vertices: 4, normals: 0, texture coordinates: 0, faces: 2

o obj21
v -3.73200011 -3.37770009 7.88030005
v -3.51859999 -3.37770009 7.88030005
v -3.51859999 -3.37770009 5.296
v -3.73200011 -3.37770009 5.296
usemtl mat4
f 113 114 115
f 113 115 116
# Vertices: 4, normals: 0, texture coordinates: 0, faces: 2

