# File generated by FabConvert.com - Free Image and 3D model conversion tools

mtllib Hospital.mtl

o obj1
v -2.39280009 2.2112999 4.92999983
v -1.45500004 2.2112999 4.92999983
v -1.45500004 3.8822999 4.92999983
v -2.39280009 3.8822999 4.92999983
v -1.45500004 3.8822999 1.83630002
v -2.39280009 3.8822999 1.83630002
v -1.45500004 2.2112999 1.83630002
v -2.39280009 2.2112999 1.83630002
usemtl mat9
f 1 2 3
f 1 3 4
f 4 3 5
f 4 5 6
f 6 5 7
f 6 7 8
f 8 7 2
f 8 2 1
f 8 1 4
f 8 4 6
f 2 7 5
f 2 5 3
# Vertices: 8, normals: 0, texture coordinates: 0, faces: 12

o obj2
v -2.25710011 -3.26279998 0.0206
v -2.26360011 -3.26279998 0.0206
v -2.26360011 -3.26279998 0.48460001
v -2.25710011 -3.26279998 0.48460001
v -2.25710011 -3.08590007 0.4413
v -2.26530004 -3.08590007 0.4413
v -2.26530004 -3.08590007 0.0489
v -2.25710011 -3.08590007 0.0489
v -2.26530004 -3.48099995 0.0489
v -2.25710011 -3.48099995 0.0489
v -2.25710011 -3.48099995 0.24510001
v -2.26530004 -3.48099995 0.24510001
v -2.26530004 -3.48099995 0.4413
v -2.25710011 -3.48099995 0.4413
v -2.26530004 -3.03410006 0.0145
v -2.26530004 -3.75679994 0.0145
v -2.26370001 -3.59500003 0.43529999
v -2.27060008 -3.59500003 0.43529999
v -2.27060008 -3.51670003 0.43529999
v -2.26370001 -3.51670003 0.43529999
v -2.27060008 -3.51670003 0.47409999
v -2.26370001 -3.51670003 0.47409999
v -2.27060008 -3.59500003 0.47409999
v -2.26370001 -3.59500003 0.47409999
v -2.29099989 -3.55170012 0.37729999
v -2.29099989 -3.55999994 0.37729999
v -2.30010009 -3.55999994 0.37729999
v -2.30010009 -3.55170012 0.37729999
v -2.26799989 -3.56340003 0.46169999
v -2.30380011 -3.56340003 0.46169999
v -2.28719997 -3.56340003 0.44760001
v -2.26799989 -3.56340003 0.44760001
v -2.26799989 -3.54830003 0.46169999
v -2.30380011 -3.54830003 0.46169999
v -2.26799989 -3.54830003 0.44760001
v -2.28719997 -3.54830003 0.44760001
v -2.26360011 -3.2822001 0.0206
v -2.26360011 -3.2822001 0.48460001
v -2.25710011 -3.2822001 0.48460001
v -2.25710011 -3.2822001 0.0206
v -2.25710011 -3.50160003 0.16680001
v -2.26360011 -3.50160003 0.16680001
v -2.26360011 -3.0638001 0.16680001
v -2.25710011 -3.0638001 0.16680001
v -2.26360011 -3.50160003 0.18619999
v -2.26360011 -3.0638001 0.18619999
v -2.25710011 -3.0638001 0.18619999
v -2.25710011 -3.50160003 0.18619999
v -2.25710011 -3.50160003 0.303
v -2.26360011 -3.50160003 0.303
v -2.26360011 -3.0638001 0.303
v -2.25710011 -3.0638001 0.303
v -2.26360011 -3.50160003 0.3224
v -2.26360011 -3.0638001 0.3224
v -2.25710011 -3.0638001 0.3224
v -2.25710011 -3.50160003 0.3224
v -2.2585001 -3.49950004 0.0263
v -2.2585001 -3.49950004 0.44330001
v -2.2585001 -3.08249998 0.44330001
v -2.2585001 -3.08249998 0.0263
v -2.26530004 -3.75679994 0.48370001
v -2.26530004 -3.03410006 0.48370001
v -2.25710011 -3.03410006 0.48370001
v -2.25710011 -3.75679994 0.48370001
v -2.26530004 -4.09829998 0.2465
v -2.26530004 -3.75679994 0.2457
v -2.26530004 -3.77870011 0.22830001
v -2.26530004 -4.05709982 0.2287
v -2.26530004 -3.77870011 0.0554
v -2.26530004 -4.09829998 0.0145
v -2.26530004 -4.05709982 0.0554
v -2.26530004 -3.72659993 0.43630001
v -2.26530004 -3.72659993 0.26840001
v -2.26530004 -3.5230999 0.43630001
v -2.26530004 -3.5230999 0.26809999
v -2.26530004 -4.09829998 0.48370001
v -2.26530004 -3.77870011 0.43630001
v -2.26530004 -4.05709982 0.43630001
v -2.26530004 -3.77870011 0.26859999
v -2.26530004 -4.05709982 0.26899999
v -2.26530004 -3.72659993 0.2281
v -2.26530004 -3.72659993 0.0554
v -2.26530004 -3.5230999 0.2278
v -2.26530004 -3.5230999 0.0554
v -2.25710011 -3.79220009 0.2149
v -2.25710011 -4.04360008 0.21529999
v -2.25710011 -3.79220009 0.0689
v -2.25710011 -4.04360008 0.0689
v -2.25710011 -3.71320009 0.42289999
v -2.25710011 -3.71320009 0.28189999
v -2.25710011 -3.53649998 0.42289999
v -2.25710011 -3.53649998 0.2816
v -2.25710011 -3.79220009 0.42289999
v -2.25710011 -4.04360008 0.42289999
v -2.25710011 -3.79220009 0.28200001
v -2.25710011 -4.04360008 0.2825
v -2.25710011 -3.71320009 0.2147
v -2.25710011 -3.71320009 0.0689
v -2.25710011 -3.53649998 0.21439999
v -2.25710011 -3.53649998 0.0689
v -2.25710011 -4.09829998 0.2465
v -2.25710011 -4.09829998 0.0145
v -2.25710011 -3.03410006 0.0145
v -2.25710011 -4.09829998 0.48370001
v -2.25710011 -3.75679994 0.0145
v -2.2506001 -3.26279998 0.48460001
v -2.2506001 -3.26279998 0.0206
v -2.24889994 -3.08590007 0.0489
v -2.24889994 -3.08590007 0.4413
v -2.24889994 -3.48099995 0.0489
v -2.24889994 -3.48099995 0.4413
v -2.24889994 -3.48099995 0.24510001
v -2.24889994 -3.75679994 0.0145
v -2.24889994 -3.03410006 0.0145
v -2.25049996 -3.59500003 0.43529999
v -2.25049996 -3.51670003 0.43529999
v -2.24359989 -3.51670003 0.43529999
v -2.24359989 -3.59500003 0.43529999
v -2.25049996 -3.51670003 0.47409999
v -2.24359989 -3.51670003 0.47409999
v -2.25049996 -3.59500003 0.47409999
v -2.24359989 -3.59500003 0.47409999
v -2.22320008 -3.55170012 0.37729999
v -2.21409988 -3.55170012 0.37729999
v -2.21409988 -3.55999994 0.37729999
v -2.22320008 -3.55999994 0.37729999
v -2.24620008 -3.56340003 0.46169999
v -2.24620008 -3.56340003 0.44760001
v -2.227 -3.56340003 0.44760001
v -2.2104001 -3.56340003 0.46169999
v -2.24620008 -3.54830003 0.46169999
v -2.2104001 -3.54830003 0.46169999
v -2.24620008 -3.54830003 0.44760001
v -2.227 -3.54830003 0.44760001
v -2.2506001 -3.2822001 0.48460001
v -2.2506001 -3.2822001 0.0206
v -2.2506001 -3.0638001 0.16680001
v -2.2506001 -3.50160003 0.16680001
v -2.2506001 -3.0638001 0.18619999
v -2.2506001 -3.50160003 0.18619999
v -2.2506001 -3.0638001 0.303
v -2.2506001 -3.50160003 0.303
v -2.2506001 -3.0638001 0.3224
v -2.2506001 -3.50160003 0.3224
v -2.25570011 -3.49950004 0.0263
v -2.25570011 -3.08249998 0.0263
v -2.25570011 -3.08249998 0.44330001
v -2.25570011 -3.49950004 0.44330001
v -2.24889994 -3.03410006 0.48370001
v -2.24889994 -3.75679994 0.48370001
v -2.24889994 -4.09829998 0.2465
v -2.24889994 -4.05709982 0.2287
v -2.24889994 -3.77870011 0.22830001
v -2.24889994 -3.75679994 0.2457
v -2.24889994 -3.77870011 0.0554
v -2.24889994 -4.05709982 0.0554
v -2.24889994 -4.09829998 0.0145
v -2.24889994 -3.72659993 0.26840001
v -2.24889994 -3.72659993 0.43630001
v -2.24889994 -3.5230999 0.43630001
v -2.24889994 -3.5230999 0.26809999
v -2.24889994 -4.09829998 0.48370001
v -2.24889994 -4.05709982 0.43630001
v -2.24889994 -3.77870011 0.43630001
v -2.24889994 -3.77870011 0.26859999
v -2.24889994 -4.05709982 0.26899999
v -2.24889994 -3.72659993 0.0554
v -2.24889994 -3.72659993 0.2281
v -2.24889994 -3.5230999 0.2278
v -2.24889994 -3.5230999 0.0554
v -2.25340009 -3.50990009 0.0513
v -2.25340009 -3.50990009 0.44240001
v -2.25340009 -4.07019997 0.44240001
v -2.25340009 -4.07019997 0.0513
v -2.2592001 -3.50990009 0.44240001
v -2.2592001 -3.50990009 0.0513
v -2.2592001 -4.07019997 0.0513
v -2.2592001 -4.07019997 0.44240001
usemtl mat9
f 9 10 11
f 9 11 12
f 13 14 15
f 13 15 16
f 16 15 17
f 16 17 18
f 19 20 21
f 19 21 22
f 17 15 23
f 17 23 24
f 25 26 27
f 25 27 28
f 28 27 29
f 28 29 30
f 30 29 31
f 30 31 32
f 32 31 26
f 32 26 25
f 26 31 29
f 26 29 27
f 33 34 35
f 33 35 36
f 37 38 39
f 37 39 40
f 41 42 38
f 41 38 37
f 43 44 42
f 43 42 41
f 40 39 44
f 40 44 43
f 44 39 34
f 44 34 33
f 39 38 35
f 39 35 34
f 38 42 36
f 38 36 35
f 42 44 33
f 42 33 36
f 10 45 46
f 10 46 11
f 47 46 45
f 47 45 48
f 49 50 51
f 49 51 52
f 50 53 54
f 50 54 51
f 55 54 53
f 55 53 56
f 57 58 59
f 57 59 60
f 58 61 62
f 58 62 59
f 63 62 61
f 63 61 64
f 65 66 67
f 65 67 68
f 14 21 69
f 14 69 70
f 70 23 15
f 70 15 14
f 22 21 14
f 22 14 13
f 18 17 20
f 18 20 19
f 71 70 69
f 71 69 72
f 73 74 75
f 73 75 76
f 74 24 77
f 74 77 75
f 24 78 79
f 24 79 77
f 78 73 76
f 78 76 79
f 74 69 80
f 74 80 81
f 69 21 82
f 69 82 80
f 21 20 83
f 21 83 82
f 20 74 81
f 20 81 83
f 84 69 85
f 84 85 86
f 69 74 87
f 69 87 85
f 74 73 88
f 74 88 87
f 73 84 86
f 73 86 88
f 24 74 89
f 24 89 90
f 74 20 91
f 74 91 89
f 20 17 92
f 20 92 91
f 17 24 90
f 17 90 92
f 76 75 93
f 76 93 94
f 75 77 95
f 75 95 93
f 77 79 96
f 77 96 95
f 79 76 94
f 79 94 96
f 81 80 97
f 81 97 98
f 80 82 99
f 80 99 97
f 82 83 100
f 82 100 99
f 83 81 98
f 83 98 100
f 86 85 101
f 86 101 102
f 85 87 103
f 85 103 101
f 87 88 104
f 87 104 103
f 88 86 102
f 88 102 104
f 90 89 105
f 90 105 106
f 89 91 107
f 89 107 105
f 91 92 108
f 91 108 107
f 92 90 106
f 92 106 108
f 109 73 78
f 109 78 110
f 111 23 70
f 111 70 71
f 112 84 73
f 112 73 109
f 110 78 24
f 110 24 113
f 23 111 113
f 23 113 24
f 84 112 72
f 84 72 69
f 9 12 114
f 9 114 115
f 13 16 116
f 13 116 117
f 16 18 118
f 16 118 116
f 19 22 119
f 19 119 120
f 118 121 122
f 118 122 116
f 123 124 125
f 123 125 126
f 124 127 128
f 124 128 125
f 127 129 130
f 127 130 128
f 129 123 126
f 129 126 130
f 126 125 128
f 126 128 130
f 131 132 133
f 131 133 134
f 135 136 137
f 135 137 138
f 139 135 138
f 139 138 140
f 141 139 140
f 141 140 142
f 136 141 142
f 136 142 137
f 142 131 134
f 142 134 137
f 137 134 133
f 137 133 138
f 138 133 132
f 138 132 140
f 140 132 131
f 140 131 142
f 115 114 143
f 115 143 144
f 47 48 144
f 47 144 143
f 49 52 145
f 49 145 146
f 146 145 147
f 146 147 148
f 55 56 148
f 55 148 147
f 57 60 149
f 57 149 150
f 150 149 151
f 150 151 152
f 63 64 152
f 63 152 151
f 153 154 155
f 153 155 156
f 117 157 158
f 117 158 119
f 157 117 116
f 157 116 122
f 22 13 117
f 22 117 119
f 18 19 120
f 18 120 118
f 71 72 158
f 71 158 157
f 159 160 161
f 159 161 162
f 162 161 163
f 162 163 121
f 121 163 164
f 121 164 165
f 165 164 160
f 165 160 159
f 162 166 167
f 162 167 158
f 158 167 168
f 158 168 119
f 119 168 169
f 119 169 120
f 120 169 166
f 120 166 162
f 170 171 172
f 170 172 158
f 158 172 173
f 158 173 162
f 162 173 174
f 162 174 159
f 159 174 171
f 159 171 170
f 121 175 176
f 121 176 162
f 162 176 177
f 162 177 120
f 120 177 178
f 120 178 118
f 118 178 175
f 118 175 121
f 160 94 93
f 160 93 161
f 161 93 95
f 161 95 163
f 163 95 96
f 163 96 164
f 164 96 94
f 164 94 160
f 166 98 97
f 166 97 167
f 167 97 99
f 167 99 168
f 168 99 100
f 168 100 169
f 169 100 98
f 169 98 166
f 171 102 101
f 171 101 172
f 172 101 103
f 172 103 173
f 173 103 104
f 173 104 174
f 174 104 102
f 174 102 171
f 175 106 105
f 175 105 176
f 176 105 107
f 176 107 177
f 177 107 108
f 177 108 178
f 178 108 106
f 178 106 175
f 109 110 165
f 109 165 159
f 111 71 157
f 111 157 122
f 112 109 159
f 112 159 170
f 110 113 121
f 110 121 165
f 122 121 113
f 122 113 111
f 170 158 72
f 170 72 112
f 179 180 181
f 179 181 182
f 183 184 185
f 183 185 186
# Vertices: 178, normals: 0, texture coordinates: 0, faces: 288

o obj3
v -2.25710011 -4.09829998 0.55269998
v -2.25710011 -2.9677999 0.55269998
v -2.28690004 -2.9677999 0.55269998
v -2.28690004 -4.09829998 0.55269998
v -2.25710011 -2.9677999 -0.0559
v -2.28690004 -2.9677999 -0.0559
v -2.25710011 -4.09829998 -0.0559
v -2.28690004 -4.09829998 -0.0559
v -2.28690004 -3.03390002 0.48199999
v -2.28690004 -4.09829998 0.48199999
v -2.28690004 -3.03390002 0.0148
v -2.28690004 -4.09829998 0.0148
v -2.25710011 -4.09829998 0.0148
v -2.25710011 -3.03390002 0.0148
v -2.25710011 -3.03390002 0.48199999
v -2.25710011 -4.09829998 0.48199999
v -2.22729993 -4.09829998 0.55269998
v -2.22729993 -2.9677999 0.55269998
v -2.22729993 -2.9677999 -0.0559
v -2.22729993 -4.09829998 -0.0559
v -2.22729993 -4.09829998 0.48199999
v -2.22729993 -3.03390002 0.48199999
v -2.22729993 -3.03390002 0.0148
v -2.22729993 -4.09829998 0.0148
usemtl mat9
f 187 188 189
f 187 189 190
f 188 191 192
f 188 192 189
f 191 193 194
f 191 194 192
f 190 189 195
f 190 195 196
f 189 192 197
f 189 197 195
f 192 194 198
f 192 198 197
f 197 198 199
f 197 199 200
f 196 195 201
f 196 201 202
f 195 197 200
f 195 200 201
f 187 203 204
f 187 204 188
f 188 204 205
f 188 205 191
f 191 205 206
f 191 206 193
f 203 207 208
f 203 208 204
f 204 208 209
f 204 209 205
f 205 209 210
f 205 210 206
f 209 200 199
f 209 199 210
f 207 202 201
f 207 201 208
f 208 201 200
f 208 200 209
f 190 196 202
f 190 202 207
f 190 207 203
f 190 203 187
f 198 194 193
f 198 193 206
f 198 206 210
f 198 210 199
# Vertices: 24, normals: 0, texture coordinates: 0, faces: 44

o obj4
v -2.38899994 3.80130005 6.34730005
v -1.45120001 3.80130005 6.34730005
v -1.45120001 3.80130005 6.05119991
v -2.38899994 3.80130005 6.05119991
v -1.45120001 2.2335 6.05119991
v -2.38899994 2.2335 6.05119991
v -1.45120001 2.2335 6.34730005
v -2.38899994 2.2335 6.34730005
v -2.39280009 2.87140012 6.95370007
v -1.45500004 2.87140012 6.95370007
v -1.45500004 3.22210002 6.95370007
v -2.39280009 3.22210002 6.95370007
v -1.45500004 3.22210002 5.38590002
v -2.39280009 3.22210002 5.38590002
v -1.45500004 2.87140012 5.38590002
v -2.39280009 2.87140012 5.38590002
usemtl mat9
f 211 212 213
f 211 213 214
f 214 213 215
f 214 215 216
f 216 215 217
f 216 217 218
f 218 217 212
f 218 212 211
f 218 211 214
f 218 214 216
f 212 217 215
f 212 215 213
f 219 220 221
f 219 221 222
f 222 221 223
f 222 223 224
f 224 223 225
f 224 225 226
f 226 225 220
f 226 220 219
f 226 219 222
f 226 222 224
f 220 225 223
f 220 223 221
# Vertices: 16, normals: 0, texture coordinates: 0, faces: 24

o obj5
v -1.1027 1.79960001 -2.2486999
v -1.01489997 1.67799997 -2.24510002
v -1.01999998 1.7924 -2.19519997
v -1.22979999 2.09910011 -2.26099992
v -1.20070004 2.13450003 -2.24300003
v -1.26830006 2.13129997 -2.13940001
v -0.94129997 1.58179998 -2.21799994
v -0.96149999 1.62199998 -2.28410006
v -1.51999998 1.45019996 -2.93319988
v -1.51989996 1.43830001 -2.9217999
v -1.51619995 1.44599998 -2.92140007
v -1.51619995 1.43200004 -2.92619991
v -1.50870001 1.43340003 -2.9303
v -1.50489998 1.4411 -2.92989993
v -1.50870001 1.44739997 -2.92549992
v -0.81629997 1.67799997 -2.33769989
v -0.76270002 1.79960001 -2.4072001
v -0.77490002 1.7924 -2.30949998
v -0.6954 2.13450003 -2.47869992
v -0.6904 2.09910011 -2.51250005
v -0.57260001 2.13129997 -2.46379995
v -0.84289998 1.58179998 -2.26390004
v -0.88059998 1.62199998 -2.32179999
v -1.01010001 1.43830001 -3.15949988
v -1.01880002 1.45019996 -3.16689992
v -1.0122 1.44599998 -3.15639997
v -1.01600003 1.43200004 -3.15949988
v -1.02390003 1.43340003 -3.15639997
v -1.02600002 1.4411 -3.15319991
v -1.02020001 1.44739997 -3.15330005
v -0.97180003 1.972 -2.00570011
v -1.05799997 1.77639997 -2.0243001
v -1.02219999 1.77929997 -1.89820004
v -0.92299998 1.95469999 -1.90110004
v -0.99989998 1.13689995 -2.07789993
v -0.98790002 0.95289999 -2.07579994
v -1.02170002 0.95169997 -2.01690006
v -1.03040004 1.14100003 -2.01939988
v -1.01890004 1.31560004 -2.10640001
v -1.04340005 1.30830002 -2.03259993
v -0.89560002 1.79960001 -1.52400005
v -0.7931 1.78830004 -1.37039995
v -0.69400001 1.97080004 -1.38610005
v -0.79110003 1.97759998 -1.57060003
v -0.92150003 1.48870003 -1.68359995
v -0.82709998 1.35309994 -1.75320005
v -0.75599998 1.3427 -1.6056
v -0.87620002 1.50020003 -1.53989995
v -0.73280001 2.0237999 -1.597
v -0.61559999 2.07570004 -1.64779997
v -0.6771 2.05620003 -1.77980006
v -0.78119999 2.01559997 -1.73029995
v -0.73100001 2.04220009 -1.89540005
v -0.8387 2.00580001 -1.87549996
v -0.63620001 2.00390005 -1.41349995
v -0.52990001 2.05259991 -1.46399999
v -0.63239998 1.85469997 -1.25399995
v -0.57139999 1.89839995 -1.27450001
v -0.72869998 1.57239997 -1.26950002
v -0.70789999 1.73599994 -1.24870002
v -0.80739999 1.59360003 -1.38349998
v -1.01709998 1.94949996 -2.09139991
v -1.05710006 1.77680004 -2.10430002
v -0.7536 2.04900002 -1.94379997
v -0.86379999 2.01729989 -1.92499995
v -0.6983 1.35450006 -1.82529998
v -0.62349999 1.3362 -1.66480005
v -0.68309999 1.33089995 -1.63590002
v -0.76120001 1.33899999 -1.78989995
v -0.62379998 1.32490003 -1.53209996
v -0.69510001 1.33800006 -1.49249995
v -0.7022 1.29079998 -1.35739994
v -0.73589998 1.43910003 -1.29910004
v -0.77249998 1.48329997 -1.42659998
v -1.02199996 1.59039998 -1.87150002
v -1.06070006 1.59689999 -2.02830005
v -0.89709997 1.95009995 -1.84940004
v -0.91299999 2.04069996 -2.01250005
v -0.9799 1.58790004 -1.84739995
v -0.94870001 1.58780003 -1.66240001
v -0.94770002 1.78289998 -1.67219996
v -0.98680001 1.77699995 -1.84029996
v -0.95370001 1.14400005 -2.08220005
v -0.89099997 1.14119995 -2.0144999
v -0.884 0.96130002 -1.99950004
v -0.9436 0.95459998 -2.08349991
v -0.95130002 1.47109997 -2.16720009
v -0.9501 1.31330001 -2.10369992
v -1.04639995 1.49489999 -2.11490011
v -0.95249999 1.50100005 -1.86650002
v -1.00779998 1.50020003 -1.8721
v -1.06149995 1.50189996 -2.03670001
v -0.91430002 1.14380002 -1.96010005
v -0.91820002 0.95109999 -1.95739996
v -0.98509997 1.35590005 -1.91939998
v -0.98049998 1.14219999 -1.95430005
v -0.86769998 1.39209998 -1.89970005
v -0.95850003 0.85640001 -2.13930011
v -0.8556 0.85089999 -2.01799989
v -0.83660001 1.39209998 -1.95539999
v -0.77060002 1.38030005 -1.98020005
v -0.90750003 1.59899998 -1.51230001
v -0.80309999 2.06349993 -2.04999995
v -0.84069997 1.97099996 -1.7069
v -0.47040001 1.50220001 -1.20299995
v -0.46309999 1.6997 -1.20850003
v -0.51880002 1.67400002 -1.18089998
v -0.53979999 1.52900004 -1.18900001
v -0.86790001 1.31140006 -2.0079
v -0.84719998 1.39890003 -2.01900005
v -0.8021 1.40269995 -2.04789996
v -0.89410001 1.55990005 -2.24510002
v -0.87410003 1.4677 -2.20219994
v -0.62709999 1.43690002 -1.19669998
v -0.59649998 1.55079997 -1.17060006
v -0.57309997 1.329 -1.55680001
v -0.47369999 1.30900002 -1.34360003
v -0.5072 1.31089997 -1.37479997
v -0.98329997 0.97039998 -1.94620001
v -0.7123 0.87019998 -1.3441
v -0.62529999 0.86979997 -1.23699999
v -0.60420001 0.93180001 -1.2529
v -0.6803 0.9346 -1.34370005
v -0.62440002 1.11339998 -1.27040005
v -0.57569999 1.11839998 -1.27390003
v -0.57959998 1.2615 -1.25569999
v -0.62940001 1.26880002 -1.24909997
v -0.53619999 1.12220001 -1.33109999
v -0.51849997 0.92739999 -1.32060003
v -0.56620002 0.9242 -1.41120005
v -0.56510001 1.09669995 -1.39760005
v -0.64249998 1.10730004 -1.39590001
v -0.65039998 0.93430001 -1.40289998
v -0.55779999 0.93720001 -1.26329994
v -0.66600001 1.11029994 -1.36440003
v -0.48449999 1.42060006 -1.25339997
v -0.43309999 1.41359997 -1.25639999
v -0.5589 1.42379999 -1.21000004
v -1.05369997 2.04139996 -2.34459996
v -1.02020001 2.01029992 -2.29719996
v -0.92210001 2.03390002 -2.3052001
v -0.96259999 2.07570004 -2.3921001
v -0.54390001 1.78999996 -1.20609999
v -0.42089999 1.81459999 -1.23029995
v -0.4664 1.94190001 -1.32790005
v -0.57209998 1.68359995 -1.16970003
v -1.00769997 2.05850005 -2.48880005
v -1.04050004 2.01690006 -2.55909991
v -1.13129997 2.00250006 -2.5158999
v -1.09979999 2.04649997 -2.44370008
v -0.84439999 2.06739998 -2.13849998
v -0.95899999 2.03550005 -2.07389998
v -0.4188 1.49360001 -1.22590005
v -0.4181 1.68299997 -1.22430003
v -0.59500003 1.77540004 -1.20089996
v -1.08290005 1.9698 -2.30679989
v -1.09490001 2.01309991 -2.32669997
v -0.92220002 1.6013 -2.3053
v -1.0244 1.59080005 -2.43239999
v -0.99169999 1.60780001 -2.34130001
v -1.06299996 1.61670005 -2.31360006
v -1.0812 1.58780003 -2.41409993
v -0.98879999 1.59539998 -2.44819999
v -0.95139998 1.60619998 -2.36800003
v -1.19620001 1.62269998 -2.69330001
v -1.19340003 1.60790002 -2.65089989
v -1.16620004 1.73749995 -2.53069997
v -1.16709995 1.79789996 -2.59910011
v -1.14339995 1.92379999 -2.54520011
v -1.06340003 1.93429995 -2.60820007
v -1.16190004 1.54799998 -2.62639999
v -1.19379997 1.55470002 -2.66930008
v -1.19910002 1.41009998 -2.71339989
v -1.15020001 1.40939999 -2.6789999
v -1.15680003 1.70449996 -2.47939992
v -1.16149998 1.71730006 -2.50370002
v -1.23409998 1.57980001 -2.58030009
v -1.22309995 1.56830001 -2.53559995
v -1.2033 1.41659999 -2.75329995
v -1.15629995 1.43309999 -2.80739999
v -1.15059996 1.18280005 -2.79520011
v -1.18149996 1.18369997 -2.75570011
v -1.19920003 1.57140005 -2.71140003
v -1.14390004 1.58609998 -2.78069997
v -1.19889998 1.80449998 -2.5151999
v -1.15419996 1.87170005 -2.56500006
v -1.16760004 1.17990005 -2.70770001
v -1.14359999 1.17840004 -2.6960001
v -1.12720001 0.9709 -2.67030001
v -1.11489999 0.9745 -2.66039991
v -1.05649996 0.91320002 -2.5934999
v -1.07640004 0.92549998 -2.59190011
v -1.06690001 0.9285 -2.56949997
v -1.04349995 0.92189997 -2.56559992
v -1.11249995 1.17620003 -2.71350002
v -1.09130001 0.97600001 -2.66810012
v -1.05809999 1.56079996 -2.59680009
v -1.03840005 1.60959995 -2.5545001
v -1.11790001 1.59969997 -2.51340008
v -1.15980005 1.54050004 -2.56290007
v -1.09560001 0.91049999 -2.62579989
v -1.07669997 0.89910001 -2.63660002
v -1.05480003 1.59220004 -2.1164
v -0.9659 2.00329995 -2.19790006
v -1.00779998 1.94200003 -2.21740007
v -1.16919994 1.90649998 -2.49810004
v -1.19589996 1.86880004 -2.43210006
v -1.17110002 1.90680003 -2.39770007
v -1.1595 1.97889996 -2.46070004
v -1.17560005 1.78359997 -2.40969992
v -0.4761 1.72239995 -1.19379997
v -0.3942 1.57669997 -1.17349994
v -0.40810001 1.57790005 -1.16180003
v -0.40360001 1.58080006 -1.15139997
v -0.39340001 1.45200002 -1.15069997
v -0.39770001 1.45079994 -1.15989995
v -0.38170001 1.45299995 -1.14639997
v -0.38170001 1.58430004 -1.14660001
v -0.39129999 1.45039999 -1.16719997
v -0.3996 1.31410003 -1.18579996
v -0.4057 1.31410003 -1.17809999
v -0.4014 1.31410003 -1.16840005
v -1.09109998 1.58319998 -2.47839999
v -1.12320006 1.65690005 -2.41899991
v -1.14649999 1.69729996 -2.4388001
v -1.10730004 1.61450005 -2.49799991
v -1.12300003 1.80420005 -2.26300001
v -1.14030004 1.78750002 -2.30419993
v -1.10280001 1.70589995 -2.31279993
v -1.09010005 1.704 -2.26130009
v -1.17780006 1.77559996 -2.43779993
v -1.17869997 1.78890002 -2.48189998
v -1.17620003 1.77489996 -2.44939995
v -1.1767 1.78180003 -2.47230005
v -1.17139995 1.77199996 -2.4849
v -1.17279994 1.76800001 -2.46510005
v -1.16960001 1.75320005 -2.45849991
v -1.17009997 1.75520003 -2.44840002
v -1.16989994 1.75409997 -2.46869993
v -1.16869998 1.7572 -2.47919989
v -1.0675 1.5618 -2.61689997
v -1.16079998 1.53480005 -2.59610009
v -1.08109999 1.55060005 -2.64619994
v -1.05079997 1.50039995 -2.58130002
v -1.06330001 1.50189996 -2.57870007
v -1.07439995 1.52059996 -2.57329988
v -1.04910004 1.51040006 -2.5775001
v -1.04750001 1.5266 -2.57410002
v -1.08200002 1.54089999 -2.56170011
v -1.0402 1.57519996 -2.47749996
v -1.06640005 1.574 -2.47270012
v -1.06690001 1.5381 -2.54130006
v -1.05439997 1.53629994 -2.54360008
v -1.04069996 1.56159997 -2.55940008
v -1.08959997 1.56120002 -2.55019999
v -1.02339995 1.63199997 -2.5223999
v -1.03699994 1.5302 -2.55170012
v -1.0108 1.57599998 -2.49530005
v -1.13619995 0.9594 -2.69829988
v -1.09809995 0.92900002 -2.61989999
v -1.07539999 0.94599998 -2.63389993
v -1.09060001 0.94809997 -2.61940002
v -1.06860006 0.95560002 -2.5769999
v -1.05229998 0.95190001 -2.58450007
v -0.9892 2.06710005 -2.44919991
v -1.08200002 2.0473001 -2.40540004
v -1.11730003 0.94959998 -2.72370005
v -1.07529998 0.94599998 -2.59459996
v -1.06029999 0.94410002 -2.60159993
v -1.07410002 0.93510002 -2.5783
v -1.13730001 1.63639998 -2.76659989
v -1.05949998 0.92549998 -2.59980011
v -1.04530001 0.94599998 -2.6085999
v -1.04250002 0.92549998 -2.60770011
v -1.02610004 0.8251 -2.1249001
v -1.02649999 0.85399997 -2.12770009
v -0.95410001 0.82539999 -2.13459992
v -0.9163 0.85409999 -1.93920004
v -0.99250001 0.85759997 -1.93719995
v -0.91769999 0.81980002 -1.93690002
v -0.98720002 0.82300001 -1.94430006
v -0.86570001 0.83039999 -2.03069997
v -1.06980002 0.85960001 -2.04410005
v -1.04330003 0.8251 -2.04410005
v -0.51169997 0.86839998 -1.33420002
v -0.50529999 0.82260001 -1.30789995
v -0.58520001 0.81940001 -1.46739995
v -0.57709998 0.85780001 -1.45000005
v -0.55489999 0.87239999 -1.25670004
v -0.56120002 0.83139998 -1.24530005
v -0.67790002 0.8707 -1.4332
v -0.72130001 0.82969999 -1.34790003
v -0.68120003 0.82740003 -1.44340003
v -0.616 0.82709998 -1.23549998
v -1.24899995 1.90050006 -1.95299995
v -1.19389999 1.77540004 -2.05159998
v -1.23790002 1.86179996 -2.12150002
v -1.28269994 2.00110006 -2.04049993
v -1.17130005 1.71290004 -1.97360003
v -1.20710003 1.84809995 -1.87440002
v -1.15890002 2.03730011 -2.41700006
v -1.19449997 1.99100006 -2.35940003
v -1.20480001 1.773 -2.05480003
v -1.15120006 1.64489996 -2.14389992
v -1.14069998 1.52690005 -2.13499999
v -1.29330003 2.08529997 -1.97710001
v -1.30110002 2.08240008 -1.97899997
v -1.26950002 1.99440002 -1.86029994
v -1.26170003 1.99730003 -1.85839999
v -1.28069997 2.05299997 -2.14030004
v -1.22850001 1.99150002 -2.21000004
v -1.29820001 2.11919999 -2.09249997
v -1.27600002 2.12840009 -2.14129996
v -1.30480003 2.09610009 -2.16149998
v -1.30239999 2.05819988 -2.13529992
v -1.31780005 1.99170005 -2.04209995
v -1.25979996 1.898 -1.95669997
v -1.17659998 2.07150006 -2.36249995
v -1.13189995 2.09019995 -2.3835001
v -1.24170005 2.11809993 -2.24720001
v -1.0826 1.60769999 -2.21259999
v -1.21210003 1.84019995 -1.87290001
v -1.26489997 1.9368 -1.83459997
v -1.09189999 1.60790002 -2.2190001
v -1.25709999 1.93980002 -1.83270001
v -1.26789999 2.06760001 -2.23119998
v -1.13039994 1.53129995 -2.13590002
v -1.22580004 2.04080009 -2.22180009
v -1.12689996 2.06360006 -2.39610004
v -1.24689996 1.99349999 -2.22720003
v -1.21370006 2.02600002 -2.32209992
v -1.20580006 1.96210003 -2.28379989
v -1.1803 1.80710006 -2.204
v -1.17250001 1.9569 -2.31629992
v -1.29040003 2.12220001 -2.09060001
v -1.11020005 1.62269998 -2.4993
v -1.02620006 1.65320003 -2.52839994
v -1.171 1.53929996 -2.56680012
v -1.17639995 1.54030001 -2.58809996
v -1.22169995 1.57219994 -2.57599998
v -1.21270001 1.56470001 -2.54830003
v -1.20940006 1.57050002 -2.60050011
v -1.21459997 1.56760001 -2.60949993
v -1.10769999 1.40869999 -2.7032001
v -1.19669998 1.5467 -2.62590003
v -1.13680005 1.59689999 -2.48930001
v -1.16690004 1.55089998 -2.54270005
v -1.14900005 1.69690001 -2.45819998
v -1.19630003 1.56040001 -2.53110003
v -1.1487 1.63150001 -2.48110008
v -1.17299998 1.77359998 -2.3743999
v -1.09239995 1.81789994 -2.67050004
v -1.07519996 1.88740003 -2.63339996
v -1.13380003 1.92149997 -2.3283999
v -1.28890002 2.07859993 -2.15380001
v -0.35499999 1.7464 -1.26300001
v -0.4021 1.74740005 -1.19000006
v -0.37360001 1.57910001 -1.171
v -0.39120001 1.31420004 -1.16709995
v -1.05209994 1.48329997 -2.58400011
v -1.05770004 1.49259996 -2.58139992
v -1.09940004 1.55330002 -2.18120003
v -1.17410004 1.54700005 -2.55080009
v -1.19319999 1.55840003 -2.54410005
v -1.19379997 1.55219996 -2.60660005
v -1.18149996 1.54250002 -2.59940004
v -1.18519998 1.49880004 -2.60380006
v -1.19120002 1.51989996 -2.62789989
v -1.15380001 1.57710004 -2.5933001
v -1.14530003 1.55970001 -2.56710005
v -1.21790004 1.53910005 -2.62649989
v -1.18200004 1.59399998 -2.59310007
v -1.20169997 1.59360003 -2.56669998
v -1.23860002 1.53719997 -2.60089993
v -1.19309998 1.57620001 -2.54049993
v -1.23249996 1.51610005 -2.57669997
v -1.20580006 1.49689996 -2.5782001
v -1.16499996 1.55920005 -2.54069996
v -1.27880001 1.42359996 -2.6875
v -1.29750001 1.42009997 -2.66829991
v -1.36870003 1.39499998 -2.77659988
v -1.38559997 1.39129996 -2.76309991
v -1.31659997 1.43869996 -2.66429996
v -1.31700003 1.46080005 -2.6796
v -1.29830003 1.46420002 -2.69880009
v -1.27909994 1.44560003 -2.70280004
v -1.45749998 1.40620005 -2.87129998
v -1.46899998 1.40380001 -2.86400008
v -1.39849997 1.40779996 -2.7565999
v -1.39450002 1.42809999 -2.76370001
v -1.37750006 1.43180001 -2.77729988
v -1.36459994 1.41530001 -2.78369999
v -1.47580004 1.41419995 -2.85809994
v -1.47109997 1.42700005 -2.85949993
v -1.45959997 1.42929995 -2.86680007
v -1.45290005 1.41900003 -2.87269998
v -0.8897 2.0323 -2.23559999
v -0.66070002 1.972 -2.15079999
v -0.61189997 1.95469999 -2.04620004
v -0.546 1.77929997 -2.12019992
v -0.61949998 1.77639997 -2.22869992
v -0.6979 1.13689995 -2.21869993
v -0.63349998 1.14100003 -2.20449996
v -0.63730001 0.95169997 -2.19619989
v -0.704 0.95289999 -2.20819998
v -0.7076 1.31560004 -2.25160003
v -0.63529998 1.30830002 -2.22289991
v -0.3407 1.79960001 -1.78279996
v -0.4436 1.97759998 -1.73259997
v -0.36469999 1.97080004 -1.53970003
v -0.28889999 1.78830004 -1.60549998
v -0.4463 1.48870003 -1.90509999
v -0.3653 1.50020003 -1.77810001
v -0.493 1.3427 -1.72829998
v -0.56029999 1.35309994 -1.87759995
v -0.50120002 2.0237999 -1.70500004
v -0.57230002 2.01559997 -1.82780004
v -0.64649999 2.00580001 -1.96510005
v -0.42269999 2.00390005 -1.51310003
v -0.35800001 1.89839995 -1.37409997
v -0.30309999 1.85469997 -1.40750003
v -0.25299999 1.57239997 -1.49129999
v -0.28979999 1.59360003 -1.62479997
v -0.25049999 1.73599994 -1.46200001
v -0.6814 1.77680004 -2.27950001
v -0.69730002 1.94949996 -2.24060011
v -0.66839999 2.01729989 -2.01620007
v -0.63069999 1.33899999 -1.85070002
v -0.56300002 1.33089995 -1.69190001
v -0.44549999 1.33800006 -1.60889995
v -0.52160001 1.32490003 -1.57969999
v -0.33739999 1.29079998 -1.52750003
v -0.3452 1.48329997 -1.62590003
v -0.27110001 1.43910003 -1.5158
v -0.52560002 1.59039998 -2.10299993
v -0.62089998 1.59689999 -2.23340011
v -0.58899999 1.95009995 -1.99310005
v -0.70370001 2.04069996 -2.11010003
v -0.53420001 1.58790004 -2.0552001
v -0.52429998 1.77699995 -2.05599999
v -0.4208 1.78289998 -1.91789997
v -0.41260001 1.58780003 -1.91240001
v -0.73089999 1.14400005 -2.18610001
v -0.73839998 0.95459998 -2.17919993
v -0.71240002 0.96130002 -2.0796001
v -0.71939999 1.14119995 -2.09450006
v -0.79769999 1.47109997 -2.23889995
v -0.6965 1.49489999 -2.27810001
v -0.74970001 1.31330001 -2.19709992
v -0.56639999 1.50100005 -2.04649997
v -0.5352 1.50020003 -2.09249997
v -0.62669998 1.50189996 -2.23939991
v -0.65810001 0.95109999 -2.07859993
v -0.66280001 1.14380002 -2.07739997
v -0.58600003 1.35590005 -2.10549998
v -0.64639997 1.39209998 -2.00289989
v -0.61580002 1.14219999 -2.1243999
v -0.77160001 0.85640001 -2.22650003
v -0.74489999 0.85089999 -2.0697
v -0.70920002 1.39209998 -2.01489997
v -0.32409999 1.59899998 -1.78429997
v -0.51599997 1.97099996 -1.85829997
v -0.36809999 1.50220001 -1.2507
v -0.31279999 1.52900004 -1.29489994
v -0.32010001 1.67400002 -1.27359998
v -0.377 1.6997 -1.24870002
v -0.7511 1.39890003 -2.06389999
v -0.72920001 1.31140006 -2.07259989
v -0.2622 1.55079997 -1.32650006
v -0.26249999 1.43690002 -1.36670005
v -0.47600001 1.31089997 -1.38929999
v -0.60769999 0.97039998 -2.12129998
v -0.32069999 0.87019998 -1.52670002
v -0.3409 0.9346 -1.50189996
v -0.32030001 0.93180001 -1.38530004
v -0.28929999 0.86979997 -1.37979996
v -0.32069999 1.11339998 -1.41199994
v -0.3012 1.26880002 -1.40209997
v -0.33829999 1.2615 -1.36819994
v -0.3547 1.11839998 -1.37699997
v -0.42399999 1.12220001 -1.38349998
v -0.45629999 1.09669995 -1.4483
v -0.46599999 0.9242 -1.45790005
v -0.42719999 0.92739999 -1.36319995
v -0.40529999 1.10730004 -1.50650001
v -0.40549999 0.93430001 -1.51699996
v -0.3581 0.93720001 -1.35640001
v -0.4368 0.86839998 -1.35529995
v -0.35499999 0.87239999 -1.34990001
v -0.366 1.11029994 -1.5043
v -0.39770001 1.42060006 -1.29390001
v -0.31659999 1.42379999 -1.32299995
v -0.86760002 2.04139996 -2.43140006
v -0.85290003 2.01029992 -2.37520003
v -0.32319999 1.78999996 -1.30900002
v -0.27720001 1.68359995 -1.30719995
v -0.91399997 2.04649997 -2.5302999
v -0.94910002 2.00250006 -2.60089993
v -0.72109997 2.03550005 -2.18479991
v -0.28639999 1.77540004 -1.3448
v -0.81999999 1.9698 -2.42939997
v -0.82749999 2.01309991 -2.45140004
v -0.95380002 1.59080005 -2.46530008
v -0.90319997 1.58780003 -2.49710011
v -0.83789998 1.61670005 -2.41860008
v -0.90499997 1.60780001 -2.38179994
v -1.04320002 1.62269998 -2.76460004
v -0.98970002 1.79789996 -2.68179989
v -0.93790001 1.73749995 -2.63720012
v -1.01250005 1.60790002 -2.73519993
v -0.9637 1.92379999 -2.62899995
v -1.01409996 1.54799998 -2.6954
v -1.0618 1.40939999 -2.72029996
v -1.05669999 1.41009998 -2.77979994
v -1.02639997 1.55470002 -2.74729991
v -0.90469998 1.70449996 -2.59699988
v -0.90509999 1.56830001 -2.68400002
v -0.93220001 1.57980001 -2.72110009
v -0.92030001 1.71730006 -2.61619997
v -1.08459997 1.41659999 -2.80870008
v -1.10049999 1.18369997 -2.79349995
v -1.05509996 1.57140005 -2.77859998
v -0.90509999 1.80449998 -2.65219998
v -0.97189999 1.87170005 -2.6500001
v -1.07260001 1.17990005 -2.75200009
v -1.07910001 1.17840004 -2.72609997
v -1.07019997 0.9745 -2.68120003
v -1.06990004 0.9709 -2.69700003
v -1.03149998 0.9285 -2.58599997
v -0.96679997 1.54050004 -2.65289998
v -0.95569998 1.59969997 -2.58909988
v -1.05620003 0.91049999 -2.64420009
v -0.69220001 1.59220004 -2.28550005
v -0.8118 2.00329995 -2.26979995
v -0.79970002 1.94200003 -2.31439996
v -0.91100001 1.90649998 -2.61849999
v -0.88859999 1.97889996 -2.58699989
v -0.83289999 1.90680003 -2.55539989
v -0.84329998 1.86880004 -2.59660006
v -0.83920002 1.78359997 -2.56649995
v -0.37959999 1.45109999 -1.16289997
v -0.39019999 1.31420004 -1.18550003
v -0.38600001 1.31410003 -1.17610002
v -0.94620001 1.58319998 -2.546
v -0.9508 1.61450005 -2.5710001
v -0.88020003 1.69729996 -2.56299996
v -0.88 1.65690005 -2.53239989
v -0.76069999 1.80420005 -2.43199992
v -0.78060001 1.704 -2.40569997
v -0.8118 1.70589995 -2.44849992
v -0.78100002 1.78750002 -2.47169995
v -0.8969 1.7572 -2.60590005
v -0.88810003 1.75409997 -2.60010004
v -0.89950001 1.77199996 -2.61170006
v -0.89249998 1.78890002 -2.61529994
v -0.99150002 1.53480005 -2.67499995
v -1.02960002 1.52059996 -2.59430003
v -1.04079998 1.50189996 -2.58909988
v -1.0158 1.54089999 -2.59260011
v -0.97820002 1.57519996 -2.50650001
v -1.01960003 1.53629994 -2.55979991
v -1.00989997 1.5381 -2.56789994
v -0.95770001 1.574 -2.52340007
v -1.00209999 1.56120002 -2.59100008
v -1.08560002 0.9594 -2.72189999
v -1.05009997 0.92900002 -2.64229989
v -1.03610003 0.95560002 -2.59209991
v -1.05439997 0.94809997 -2.63619995
v -0.89609998 2.0473001 -2.4921
v -1.03359997 0.93510002 -2.59719992
v -0.71710002 0.8251 -2.26900005
v -0.77079999 0.82539999 -2.22009993
v -0.7191 0.85399997 -2.27110004
v -0.6455 0.85409999 -2.06550002
v -0.59490001 0.85759997 -2.12260008
v -0.64279997 0.81980002 -2.06509995
v -0.6038 0.82300001 -2.12310004
v -0.74809998 0.83039999 -2.0855999
v -0.64410001 0.8251 -2.23029995
v -0.62709999 0.85960001 -2.25049996
v -0.48879999 0.85780001 -1.49119997
v -0.49689999 0.81940001 -1.5086
v -0.4332 0.82270002 -1.36039996
v -0.352 0.83139998 -1.36860001
v -0.4111 0.8707 -1.55760002
v -0.31779999 0.82969999 -1.53610003
v -0.41679999 0.82740003 -1.56669998
v -0.30399999 0.82709998 -1.39289999
v -0.44220001 1.90050006 -2.32920003
v -0.48750001 2.00110006 -2.41129994
v -0.5783 1.86179996 -2.42910004
v -0.55309999 1.77540004 -2.35039997
v -0.5079 1.71290004 -2.28290009
v -0.40889999 1.84809995 -2.24659991
v -0.85549998 2.03730011 -2.55839992
v -0.78850001 1.99100006 -2.54870009
v -0.54860002 1.773 -2.36080003
v -0.6512 1.52690005 -2.36330009
v -0.65130001 1.64489996 -2.37709999
v -0.43220001 2.08529997 -2.37870002
v -0.36149999 1.99730003 -2.27810001
v -0.35789999 1.99440002 -2.28530002
v -0.42860001 2.08240008 -2.38590002
v -0.56519997 2.05299997 -2.47390008
v -0.65219998 1.99150002 -2.47869992
v -0.51740003 2.11919999 -2.45650005
v -0.54750001 2.05819988 -2.48729992
v -0.56599998 2.09610009 -2.50600004
v -0.56900001 2.12840009 -2.47099996
v -0.43799999 1.898 -2.33990002
v -0.46619999 1.99170005 -2.43910003
v -0.80239999 2.07150006 -2.53699994
v -0.84719998 2.09019995 -2.51620007
v -0.67220002 2.11809993 -2.51270008
v -0.74800003 1.60769999 -2.36870003
v -0.34130001 1.9368 -2.26530004
v -0.40450001 1.84019995 -2.24950004
v -0.74690002 1.60790002 -2.37989998
v -0.3448 1.93980002 -2.25810003
v -0.64319998 2.06760001 -2.52250004
v -0.65850002 1.53129995 -2.35590005
v -0.66299999 2.04080009 -2.4842
v -0.86000001 2.06360006 -2.52049994
v -0.65359998 1.99349999 -2.50379992
v -0.7234 1.96210003 -2.50880003
v -0.74760002 2.02600002 -2.5394001
v -0.76959997 1.9569 -2.50410008
v -0.67860001 1.80710006 -2.43799996
v -0.52100003 2.12220001 -2.44939995
v -0.94999999 1.62269998 -2.57399988
v -0.96249998 1.53929996 -2.66409993
v -0.97530001 1.54030001 -2.68179989
v -0.93699998 1.57219994 -2.70880008
v -0.92150003 1.56470001 -2.68409991
v -0.96359998 1.57050002 -2.71510005
v -0.96719998 1.56760001 -2.72490001
v -0.99119997 1.5467 -2.72180009
v -0.94669998 1.55089998 -2.64540005
v -0.92510003 1.59689999 -2.58800006
v -0.89340001 1.69690001 -2.57730007
v -0.91890001 1.56040001 -2.66050005
v -0.91119999 1.63150001 -2.59190011
v -0.88050002 1.75320005 -2.5933001
v -0.87230003 1.75520003 -2.58719993
v -0.81379998 1.77359998 -2.54189992
v -0.80369997 1.92149997 -2.48230004
v -0.57029998 2.07859993 -2.48880005
v -0.85930002 1.77559996 -2.5862999
v -1.04649997 1.49259996 -2.58660007
v -0.71310002 1.55330002 -2.36139989
v -0.94819999 1.54700005 -2.65610003
v -0.93080002 1.55840003 -2.66650009
v -0.97829998 1.55219996 -2.70700002
v -0.88340002 1.76800001 -2.60010004
v -0.88639998 1.78180003 -2.60770011
v -0.86919999 1.77489996 -2.59260011
v -0.98079997 1.54250002 -2.69300008
v -0.9817 1.49880004 -2.69869995
v -0.97920001 1.55970001 -2.64450002
v -0.99379998 1.57710004 -2.66790009
v -0.99629998 1.51989996 -2.71880007
v -0.9756 1.59399998 -2.68939996
v -0.97799999 1.53910005 -2.73830009
v -0.94270003 1.59360003 -2.6875
v -0.94520003 1.53719997 -2.73769999
v -0.92809999 1.57620001 -2.66409993
v -0.93049997 1.51610005 -2.71749997
v -0.94639999 1.55920005 -2.64260006
v -0.94880003 1.49689996 -2.69799995
v -0.98570001 1.42359996 -2.82419991
v -0.95889997 1.42009997 -2.82620001
v -0.99620003 1.39499998 -2.95029998
v -0.97490001 1.39129996 -2.9546001
v -0.9436 1.43869996 -2.83829999
v -0.95499998 1.46080005 -2.84840012
v -0.98180002 1.46420002 -2.84640002
v -0.99720001 1.44560003 -2.83430004
v -1.0115 1.40620005 -3.07920003
v -0.99860001 1.40380001 -3.08330011
v -0.96170002 1.40779996 -2.96029997
v -0.96969998 1.42809999 -2.9618001
v -0.991 1.43180001 -2.95749998
v -1.00419998 1.41530001 -2.95180011
v -0.98970002 1.41419995 -3.0848
v -0.99379998 1.42700005 -3.08209991
v -1.00680006 1.42929995 -3.07800007
v -1.01559997 1.41900003 -3.07660007
v -0.39140001 1.24479997 -1.16719997
v -0.38150001 1.24479997 -1.18490005
v -0.40799999 1.24479997 -1.20420003
v -0.41949999 1.24479997 -1.18920004
v -0.41100001 1.24479997 -1.17009997
v -0.3897 1.24479997 -1.20350003
v -0.40700001 1.19640005 -1.18149996
v -0.39930001 1.18040001 -1.18429995
v -0.39250001 1.19640005 -1.18889999
v -0.39660001 1.19640005 -1.19819999
v -0.40490001 1.18040001 -1.19669998
v -0.4113 1.19640005 -1.1911
usemtl mat9
f 227 228 229
f 230 231 232
f 233 229 228
f 234 233 228
f 235 236 237
f 238 236 235
f 239 238 235
f 240 239 235
f 241 240 235
f 237 241 235
f 242 243 244
f 245 246 247
f 244 248 242
f 248 249 242
f 250 251 252
f 250 253 251
f 253 254 251
f 254 255 251
f 255 256 251
f 256 252 251
f 257 258 259
f 260 257 259
f 261 262 263
f 264 261 263
f 265 261 264
f 266 265 264
f 267 268 269
f 270 267 269
f 271 272 273
f 274 271 273
f 275 276 277
f 278 275 277
f 277 279 278
f 279 280 278
f 281 282 276
f 275 281 276
f 269 283 284
f 281 269 284
f 285 286 268
f 287 285 268
f 258 257 288
f 289 258 288
f 270 269 281
f 275 270 281
f 290 291 280
f 279 290 280
f 292 293 294
f 295 292 294
f 294 296 297
f 273 294 297
f 298 299 300
f 297 298 300
f 301 259 258
f 302 301 258
f 303 280 291
f 260 303 291
f 260 291 304
f 257 260 304
f 305 306 307
f 308 305 307
f 309 310 311
f 312 309 311
f 313 314 265
f 315 313 265
f 316 305 301
f 317 316 301
f 317 301 302
f 318 317 302
f 311 310 319
f 320 311 319
f 321 322 319
f 323 321 319
f 314 309 261
f 265 314 261
f 324 312 311
f 325 324 311
f 321 323 316
f 317 321 316
f 316 323 272
f 271 316 272
f 294 273 272
f 295 294 272
f 292 295 326
f 327 292 326
f 271 274 328
f 306 271 328
f 259 301 305
f 308 259 305
f 291 290 329
f 304 291 329
f 305 316 271
f 306 305 271
f 330 270 275
f 278 330 275
f 331 332 333
f 334 331 333
f 326 323 335
f 336 326 335
f 337 327 326
f 336 337 326
f 338 339 313
f 233 338 313
f 285 299 340
f 341 285 340
f 296 342 343
f 344 296 343
f 264 263 345
f 322 264 345
f 346 347 348
f 349 346 348
f 350 351 352
f 353 350 352
f 354 355 356
f 357 354 356
f 358 357 356
f 359 358 356
f 351 360 355
f 354 351 355
f 361 298 297
f 358 361 297
f 299 298 353
f 340 299 353
f 362 344 343
f 363 362 343
f 362 364 352
f 344 362 352
f 351 350 348
f 360 351 348
f 365 366 367
f 368 365 367
f 284 369 370
f 371 284 370
f 334 333 372
f 341 334 372
f 373 374 375
f 376 373 375
f 304 329 377
f 378 304 377
f 378 288 257
f 304 378 257
f 332 331 379
f 380 332 379
f 283 286 372
f 381 283 372
f 382 366 365
f 383 382 365
f 303 308 307
f 330 303 307
f 234 384 338
f 233 234 338
f 385 386 387
f 388 385 387
f 385 389 390
f 386 385 390
f 391 392 393
f 394 391 393
f 395 375 374
f 396 395 374
f 397 398 399
f 400 397 399
f 401 402 403
f 404 401 403
f 405 406 407
f 408 405 407
f 409 410 406
f 405 409 406
f 411 412 394
f 393 411 394
f 408 413 399
f 405 408 399
f 414 413 415
f 416 414 415
f 400 399 413
f 414 400 413
f 417 418 419
f 420 417 419
f 421 414 416
f 422 421 416
f 423 424 425
f 426 423 425
f 420 419 427
f 428 420 427
f 233 429 289
f 229 233 289
f 357 358 297
f 296 357 297
f 323 319 310
f 335 323 310
f 430 431 288
f 378 430 288
f 315 429 233
f 313 315 233
f 431 229 289
f 288 431 289
f 302 258 289
f 429 302 289
f 382 227 229
f 431 382 229
f 432 433 434
f 435 432 434
f 436 433 432
f 411 436 432
f 332 437 369
f 333 332 369
f 380 438 439
f 332 380 439
f 332 439 440
f 437 332 440
f 441 440 439
f 442 441 439
f 443 444 440
f 441 443 440
f 442 439 438
f 445 442 438
f 446 447 442
f 445 446 442
f 447 448 441
f 442 447 441
f 449 450 451
f 452 449 451
f 453 454 455
f 456 453 455
f 455 450 388
f 387 455 388
f 409 405 399
f 398 409 399
f 391 409 398
f 392 391 398
f 457 458 459
f 458 460 459
f 458 461 460
f 461 462 460
f 463 464 462
f 465 463 462
f 461 466 462
f 457 459 462
f 464 457 462
f 467 468 397
f 469 467 397
f 456 228 227
f 453 456 227
f 470 471 472
f 473 470 472
f 474 473 472
f 475 474 472
f 476 477 478
f 479 476 478
f 480 481 452
f 482 480 452
f 479 483 484
f 476 479 484
f 485 427 486
f 415 485 486
f 487 488 489
f 490 487 489
f 491 492 365
f 368 491 365
f 428 427 485
f 493 428 485
f 494 495 490
f 489 494 490
f 418 494 489
f 496 418 489
f 409 391 497
f 410 409 497
f 418 498 494
f 498 495 494
f 495 498 499
f 498 500 499
f 501 502 324
f 503 501 324
f 504 320 345
f 505 504 345
f 506 504 505
f 507 506 505
f 266 321 317
f 318 266 317
f 508 325 504
f 506 508 504
f 266 264 322
f 321 266 322
f 507 505 509
f 510 507 509
f 511 512 513
f 514 511 513
f 511 355 360
f 515 511 360
f 512 511 515
f 516 512 515
f 346 349 359
f 517 346 359
f 518 346 517
f 519 518 517
f 515 360 348
f 347 515 348
f 361 350 353
f 298 361 353
f 519 516 520
f 518 519 520
f 346 518 520
f 347 346 520
f 521 522 523
f 524 521 523
f 525 522 521
f 526 525 521
f 527 435 434
f 528 527 434
f 529 530 531
f 525 529 531
f 532 533 534
f 535 532 534
f 536 524 523
f 537 536 523
f 538 539 540
f 541 538 540
f 533 542 543
f 534 533 543
f 544 545 376
f 527 544 376
f 231 545 544
f 546 231 544
f 522 547 227
f 523 522 227
f 534 543 548
f 549 534 548
f 550 453 227
f 547 550 227
f 549 548 526
f 551 549 526
f 546 552 540
f 539 546 540
f 542 523 529
f 543 542 529
f 525 531 553
f 554 383 555
f 230 554 555
f 523 542 556
f 542 541 556
f 541 540 552
f 556 541 552
f 556 552 557
f 558 556 557
f 453 559 558
f 560 453 558
f 544 557 552
f 546 544 552
f 550 530 559
f 453 550 559
f 523 559 530
f 529 523 530
f 546 539 232
f 231 546 232
f 521 524 532
f 535 521 532
f 417 498 418
f 498 417 500
f 538 541 542
f 533 538 542
f 365 492 555
f 383 365 555
f 526 521 535
f 551 526 535
f 538 533 532
f 561 538 532
f 562 425 424
f 563 562 424
f 564 565 468
f 426 564 468
f 566 567 404
f 403 566 404
f 568 566 403
f 569 568 403
f 376 492 491
f 373 376 491
f 570 469 397
f 400 570 397
f 569 398 397
f 571 569 397
f 426 425 572
f 573 426 572
f 574 572 425
f 562 574 425
f 575 576 401
f 404 575 401
f 572 576 575
f 573 572 575
f 466 465 462
f 459 460 462
f 272 323 326
f 295 272 326
f 303 330 278
f 280 303 278
f 342 296 294
f 293 342 294
f 308 303 260
f 259 308 260
f 274 300 287
f 328 274 287
f 284 371 282
f 281 284 282
f 270 330 307
f 267 270 307
f 309 312 262
f 261 309 262
f 274 273 297
f 300 274 297
f 299 285 287
f 300 299 287
f 336 313 339
f 337 336 339
f 318 315 265
f 266 318 265
f 307 306 328
f 267 307 328
f 358 359 349
f 361 358 349
f 352 364 340
f 353 352 340
f 364 334 341
f 340 364 341
f 354 344 352
f 351 354 352
f 318 302 429
f 315 318 429
f 364 362 331
f 334 364 331
f 363 379 331
f 362 363 331
f 430 366 382
f 431 430 382
f 234 386 390
f 384 234 390
f 455 454 577
f 450 455 577
f 577 434 433
f 436 577 433
f 577 436 451
f 450 577 451
f 570 400 414
f 421 570 414
f 497 391 394
f 578 497 394
f 395 412 411
f 432 395 411
f 375 395 432
f 435 375 432
f 579 578 394
f 412 579 394
f 413 408 485
f 415 413 485
f 403 402 393
f 392 403 393
f 407 493 485
f 408 407 485
f 283 381 369
f 284 283 369
f 355 511 514
f 356 355 514
f 320 319 322
f 345 320 322
f 453 560 580
f 454 453 580
f 537 554 581
f 536 537 581
f 372 286 285
f 341 372 285
f 463 465 401
f 574 463 401
f 376 375 435
f 527 376 435
f 524 536 561
f 532 524 561
f 580 560 528
f 434 580 528
f 582 583 444
f 584 582 444
f 443 441 448
f 585 443 448
f 385 388 477
f 476 385 477
f 389 385 476
f 484 389 476
f 477 388 450
f 449 477 450
f 455 387 228
f 456 455 228
f 234 228 387
f 386 234 387
f 436 457 464
f 451 436 464
f 393 402 461
f 402 466 461
f 466 402 401
f 465 466 401
f 458 457 436
f 411 458 436
f 586 587 471
f 470 586 471
f 483 479 587
f 586 483 587
f 479 478 471
f 587 479 471
f 472 471 478
f 475 472 478
f 481 480 474
f 475 481 474
f 475 478 477
f 449 475 477
f 496 486 427
f 419 496 427
f 416 488 487
f 422 416 487
f 489 488 486
f 496 489 486
f 415 486 488
f 416 415 488
f 496 419 418
f 503 324 325
f 508 503 325
f 507 510 501
f 506 507 501
f 312 324 502
f 262 312 502
f 320 504 325
f 311 320 325
f 262 502 509
f 263 262 509
f 502 501 510
f 509 502 510
f 508 506 501
f 503 508 501
f 513 512 516
f 519 513 516
f 356 514 517
f 359 356 517
f 514 513 519
f 517 514 519
f 347 520 516
f 515 347 516
f 357 296 344
f 354 357 344
f 557 544 527
f 528 557 527
f 372 333 369
f 381 372 369
f 227 382 537
f 523 227 537
f 383 554 537
f 382 383 537
f 551 535 534
f 549 551 534
f 561 232 539
f 538 561 539
f 454 580 434
f 577 454 434
f 543 529 525
f 548 543 525
f 526 548 525
f 588 547 522
f 522 553 588
f 522 525 553
f 531 530 550
f 588 531 550
f 545 231 230
f 555 545 230
f 553 531 588
f 230 232 581
f 554 230 581
f 560 558 557
f 528 560 557
f 492 376 545
f 555 492 545
f 395 396 579
f 412 395 579
f 452 562 563
f 482 452 563
f 451 574 562
f 452 451 562
f 573 589 564
f 426 573 564
f 573 575 590
f 589 573 590
f 575 404 567
f 590 575 567
f 569 571 591
f 568 569 591
f 392 398 569
f 403 392 569
f 572 574 401
f 576 572 401
f 574 451 464
f 463 574 464
f 458 411 393
f 461 458 393
f 426 468 467
f 423 426 467
f 468 565 592
f 397 468 592
f 397 592 591
f 571 397 591
f 593 594 595
f 596 593 595
f 594 597 598
f 595 594 598
f 599 598 597
f 600 599 597
f 601 599 600
f 602 601 600
f 601 602 603
f 604 601 603
f 605 593 603
f 606 605 603
f 607 605 606
f 608 607 606
f 603 602 609
f 606 603 609
f 609 602 600
f 610 609 600
f 610 600 597
f 611 610 597
f 611 597 594
f 612 611 594
f 612 594 593
f 605 612 593
f 613 607 608
f 614 613 608
f 608 606 609
f 615 608 609
f 615 609 610
f 616 615 610
f 616 610 611
f 617 616 611
f 617 611 612
f 618 617 612
f 618 612 605
f 607 618 605
f 239 613 614
f 238 239 614
f 614 608 615
f 619 614 615
f 619 615 616
f 620 619 616
f 620 616 617
f 621 620 617
f 621 617 618
f 622 621 618
f 622 618 607
f 613 622 607
f 238 614 619
f 236 238 619
f 236 619 620
f 237 236 620
f 237 620 621
f 241 237 621
f 241 621 622
f 240 241 622
f 240 622 613
f 239 240 613
f 603 593 596
f 604 603 596
f 558 559 523
f 556 558 523
f 269 268 286
f 283 269 286
f 287 268 267
f 328 287 267
f 536 581 232
f 561 536 232
f 547 588 550
f 263 509 505
f 345 263 505
f 310 309 314
f 335 310 314
f 335 314 313
f 336 335 313
f 449 452 481
f 475 449 481
f 378 377 623
f 430 378 623
f 366 430 623
f 367 366 623
f 369 437 583
f 370 369 583
f 349 348 350
f 361 349 350
f 624 625 626
f 627 624 626
f 628 629 630
f 631 628 630
f 632 633 629
f 628 632 629
f 634 635 636
f 637 634 636
f 638 639 640
f 641 638 640
f 276 642 277
f 642 643 277
f 279 277 643
f 644 279 643
f 645 642 276
f 282 645 276
f 636 645 646
f 647 636 646
f 648 649 637
f 650 648 637
f 627 651 652
f 624 627 652
f 635 642 645
f 636 635 645
f 290 279 644
f 653 290 644
f 292 654 655
f 293 292 655
f 655 640 656
f 657 655 656
f 658 656 659
f 660 658 659
f 661 662 627
f 626 661 627
f 663 625 653
f 644 663 653
f 625 624 664
f 653 625 664
f 665 666 667
f 668 665 667
f 669 670 671
f 672 669 671
f 673 674 632
f 675 673 632
f 676 677 661
f 665 676 661
f 677 678 662
f 661 677 662
f 671 679 680
f 672 671 680
f 681 682 680
f 683 681 680
f 675 632 628
f 669 675 628
f 684 685 671
f 670 684 671
f 681 677 676
f 682 681 676
f 676 638 641
f 682 676 641
f 655 654 641
f 640 655 641
f 292 327 686
f 654 292 686
f 638 668 687
f 639 638 687
f 626 666 665
f 661 626 665
f 653 664 329
f 290 653 329
f 665 668 638
f 676 665 638
f 688 643 642
f 635 688 642
f 689 690 691
f 692 689 691
f 686 693 694
f 682 686 694
f 337 693 686
f 327 337 686
f 338 248 673
f 339 338 673
f 648 695 696
f 660 648 696
f 657 697 343
f 342 657 343
f 629 683 698
f 630 629 698
f 699 700 701
f 702 699 701
f 703 704 705
f 706 703 705
f 707 708 709
f 710 707 709
f 711 712 709
f 708 711 709
f 706 707 710
f 713 706 710
f 710 714 713
f 714 715 713
f 716 711 656
f 658 716 656
f 660 696 704
f 658 660 704
f 717 363 343
f 697 717 343
f 717 697 705
f 718 717 705
f 706 713 701
f 703 706 701
f 719 368 367
f 720 719 367
f 646 371 370
f 721 646 370
f 690 695 722
f 691 690 722
f 373 723 724
f 374 373 724
f 664 725 377
f 329 664 377
f 725 664 624
f 652 725 624
f 692 380 379
f 689 692 379
f 647 726 722
f 650 647 722
f 727 728 719
f 720 727 719
f 663 688 667
f 666 663 667
f 249 248 338
f 384 249 338
f 729 730 731
f 732 729 731
f 729 732 390
f 389 729 390
f 733 734 735
f 736 733 735
f 737 396 374
f 724 737 374
f 738 739 740
f 741 738 740
f 742 743 744
f 745 742 744
f 746 747 407
f 406 746 407
f 748 746 406
f 410 748 406
f 749 735 734
f 750 749 734
f 747 746 740
f 751 747 740
f 752 753 754
f 751 752 754
f 739 752 751
f 740 739 751
f 417 420 755
f 500 417 755
f 421 422 753
f 752 421 753
f 423 756 757
f 424 423 757
f 420 428 758
f 755 420 758
f 248 244 651
f 759 248 651
f 708 657 656
f 711 708 656
f 682 694 672
f 680 682 672
f 760 725 652
f 761 760 652
f 674 673 248
f 759 674 248
f 761 652 651
f 244 761 651
f 662 759 651
f 627 662 651
f 727 761 244
f 243 727 244
f 762 763 764
f 765 762 764
f 766 749 762
f 765 766 762
f 692 691 721
f 582 692 721
f 380 692 584
f 438 380 584
f 692 582 584
f 443 767 584
f 444 443 584
f 767 445 438
f 584 767 438
f 446 445 767
f 768 446 767
f 769 768 767
f 770 771 772
f 773 770 772
f 774 775 776
f 777 774 776
f 776 731 730
f 773 776 730
f 746 748 740
f 748 741 740
f 733 736 741
f 748 733 741
f 778 779 742
f 745 778 742
f 778 745 780
f 745 735 780
f 781 780 735
f 749 781 735
f 467 469 738
f 782 467 738
f 775 774 243
f 242 775 243
f 470 473 783
f 784 470 783
f 474 785 783
f 473 474 783
f 786 787 788
f 789 786 788
f 480 482 771
f 790 480 771
f 787 786 484
f 483 787 484
f 791 754 792
f 758 791 792
f 487 490 793
f 794 487 793
f 491 368 719
f 795 491 719
f 428 493 791
f 758 428 791
f 499 793 490
f 495 499 490
f 500 796 793
f 499 500 793
f 748 410 497
f 733 748 497
f 797 798 684
f 799 797 684
f 800 801 698
f 679 800 698
f 802 803 801
f 800 802 801
f 633 678 677
f 681 633 677
f 804 802 800
f 685 804 800
f 633 681 683
f 629 633 683
f 803 805 806
f 801 803 806
f 714 807 808
f 809 714 808
f 809 810 715
f 714 809 715
f 699 811 712
f 700 699 712
f 812 813 811
f 699 812 811
f 715 702 701
f 713 715 701
f 716 658 704
f 703 716 704
f 813 812 814
f 810 813 814
f 699 702 814
f 812 699 814
f 815 816 817
f 818 815 817
f 819 820 815
f 818 819 815
f 821 822 764
f 763 821 764
f 823 819 824
f 825 823 824
f 826 827 828
f 829 826 828
f 830 831 817
f 816 830 817
f 832 833 834
f 835 832 834
f 829 828 836
f 837 829 836
f 838 821 723
f 839 838 723
f 245 840 838
f 839 245 838
f 818 817 243
f 841 818 243
f 828 842 843
f 836 828 843
f 844 841 243
f 774 844 243
f 842 845 820
f 843 842 820
f 840 835 834
f 846 840 834
f 837 836 823
f 817 837 823
f 824 819 847
f 848 246 849
f 728 848 849
f 837 817 850
f 833 837 850
f 833 850 846
f 834 833 846
f 850 851 852
f 846 850 852
f 774 853 851
f 854 774 851
f 838 840 846
f 852 838 846
f 844 774 854
f 825 844 854
f 817 823 825
f 854 817 825
f 840 245 247
f 835 840 247
f 815 827 826
f 816 815 826
f 832 829 837
f 833 832 837
f 719 728 849
f 795 719 849
f 820 845 827
f 815 820 827
f 832 855 826
f 829 832 826
f 856 563 424
f 757 856 424
f 857 756 782
f 858 857 782
f 859 744 743
f 860 859 743
f 861 862 744
f 859 861 744
f 723 373 491
f 795 723 491
f 570 739 738
f 469 570 738
f 862 863 738
f 741 862 738
f 756 864 865
f 757 756 865
f 866 856 757
f 865 866 757
f 867 743 742
f 868 867 742
f 865 864 867
f 868 865 867
f 866 869 870
f 772 866 870
f 641 654 686
f 682 641 686
f 663 644 643
f 688 663 643
f 342 293 655
f 657 342 655
f 666 626 625
f 663 666 625
f 639 687 649
f 659 639 649
f 646 645 282
f 371 646 282
f 635 634 667
f 688 635 667
f 669 628 631
f 670 669 631
f 639 659 656
f 640 639 656
f 660 659 649
f 648 660 649
f 693 337 339
f 673 693 339
f 678 633 632
f 674 678 632
f 667 634 687
f 668 667 687
f 711 716 700
f 712 711 700
f 705 704 696
f 718 705 696
f 718 696 695
f 690 718 695
f 707 706 705
f 697 707 705
f 678 674 759
f 662 678 759
f 718 690 689
f 717 718 689
f 363 717 689
f 379 363 689
f 760 761 727
f 720 760 727
f 249 384 390
f 732 249 390
f 776 773 871
f 777 776 871
f 871 766 765
f 764 871 765
f 871 773 772
f 766 871 772
f 570 421 752
f 739 570 752
f 497 578 734
f 733 497 734
f 750 737 749
f 737 762 749
f 737 724 762
f 724 763 762
f 579 750 734
f 578 579 734
f 751 754 791
f 747 751 791
f 744 736 735
f 745 744 735
f 407 747 791
f 493 407 791
f 647 646 721
f 726 647 721
f 710 709 807
f 714 710 807
f 679 698 683
f 680 679 683
f 774 777 872
f 853 774 872
f 831 830 873
f 848 831 873
f 722 695 648
f 650 722 648
f 781 749 766
f 874 781 766
f 723 821 763
f 724 723 763
f 816 826 855
f 830 816 855
f 872 764 822
f 853 872 822
f 443 585 769
f 767 443 769
f 729 786 789
f 730 729 789
f 389 484 786
f 729 389 786
f 789 770 773
f 730 789 773
f 776 775 242
f 731 776 242
f 249 732 731
f 242 249 731
f 766 772 870
f 874 766 870
f 586 470 784
f 875 586 784
f 483 586 875
f 787 483 875
f 787 875 784
f 788 787 784
f 783 785 788
f 784 783 788
f 790 785 474
f 480 790 474
f 785 770 789
f 788 785 789
f 796 755 758
f 792 796 758
f 753 422 487
f 794 753 487
f 793 796 792
f 794 793 792
f 754 753 794
f 792 754 794
f 755 796 500
f 798 804 685
f 684 798 685
f 803 802 797
f 805 803 797
f 670 631 799
f 684 670 799
f 679 671 685
f 800 679 685
f 631 630 806
f 799 631 806
f 799 806 805
f 797 799 805
f 804 798 797
f 802 804 797
f 808 813 810
f 809 808 810
f 709 712 811
f 807 709 811
f 807 811 813
f 808 807 813
f 702 715 810
f 814 702 810
f 708 707 697
f 657 708 697
f 852 822 821
f 838 852 821
f 722 726 721
f 691 722 721
f 243 817 831
f 727 243 831
f 728 727 831
f 848 728 831
f 845 842 828
f 827 845 828
f 855 832 835
f 247 855 835
f 777 871 764
f 872 777 764
f 836 843 819
f 823 836 819
f 843 820 819
f 847 819 818
f 818 841 847
f 841 876 847
f 824 876 844
f 825 824 844
f 839 849 246
f 245 839 246
f 824 847 876
f 246 848 873
f 247 246 873
f 853 822 852
f 851 853 852
f 795 849 839
f 723 795 839
f 737 750 579
f 396 737 579
f 771 482 563
f 856 771 563
f 772 771 856
f 866 772 856
f 864 756 857
f 877 864 857
f 864 877 878
f 867 864 878
f 867 878 860
f 743 867 860
f 862 861 879
f 863 862 879
f 736 744 862
f 741 736 862
f 865 868 742
f 866 865 742
f 869 866 742
f 779 869 742
f 880 881 882
f 756 423 467
f 782 756 467
f 782 738 883
f 858 782 883
f 738 863 879
f 883 738 879
f 884 885 886
f 887 884 886
f 887 886 888
f 889 887 888
f 890 891 889
f 888 890 889
f 892 893 891
f 890 892 891
f 892 894 895
f 893 892 895
f 896 897 895
f 884 896 895
f 898 899 897
f 896 898 897
f 895 897 900
f 893 895 900
f 900 901 891
f 893 900 891
f 901 902 889
f 891 901 889
f 902 903 887
f 889 902 887
f 903 896 884
f 887 903 884
f 904 905 899
f 898 904 899
f 899 906 900
f 897 899 900
f 906 907 901
f 900 906 901
f 907 908 902
f 901 907 902
f 908 909 903
f 902 908 903
f 909 898 896
f 903 909 896
f 254 253 905
f 904 254 905
f 905 910 906
f 899 905 906
f 910 911 907
f 906 910 907
f 911 912 908
f 907 911 908
f 912 913 909
f 908 912 909
f 913 904 898
f 909 913 898
f 253 250 910
f 905 253 910
f 250 252 911
f 910 250 911
f 252 256 912
f 911 252 912
f 256 255 913
f 912 256 913
f 255 254 904
f 913 255 904
f 895 894 885
f 884 895 885
f 851 850 817
f 854 851 817
f 636 647 650
f 637 636 650
f 649 687 634
f 637 649 634
f 830 855 247
f 873 830 247
f 876 841 844
f 630 698 801
f 806 630 801
f 672 694 675
f 669 672 675
f 694 693 673
f 675 694 673
f 770 785 790
f 771 770 790
f 725 760 623
f 377 725 623
f 720 367 623
f 760 720 623
f 721 370 583
f 582 721 583
f 700 716 703
f 701 700 703
f 779 778 880
f 880 780 881
f 780 781 881
f 881 781 882
f 781 874 882
f 874 870 880
f 882 874 880
f 778 780 880
f 870 869 880
f 869 779 880
f 914 915 769
f 585 914 769
f 916 917 447
f 446 916 447
f 918 914 585
f 448 918 585
f 919 916 446
f 768 919 446
f 915 919 768
f 769 915 768
f 917 918 448
f 447 917 448
f 920 921 914
f 918 920 914
f 922 923 919
f 915 922 919
f 924 925 917
f 916 924 917
f 921 922 915
f 914 921 915
f 923 924 916
f 919 923 916
f 925 920 918
f 917 925 918
f 924 923 922
f 921 924 922
f 920 925 924
f 921 920 924
f 437 440 444
f 583 437 444
# Vertices: 699, normals: 0, texture coordinates: 0, faces: 1368

o obj6
v -8.73029995 -1.5359 7.44040012
v -0.0409 -1.5359 7.44040012
v -0.0409 -1.36010003 7.44040012
v -8.73029995 -1.36010003 7.44040012
v -0.0409 -1.36010003 -3.65330005
v -8.73029995 -1.36010003 -3.65330005
v -0.0409 -1.5359 -3.65330005
v -8.73029995 -1.5359 -3.65330005
usemtl mat9
f 926 927 928
f 926 928 929
f 929 928 930
f 929 930 931
f 931 930 932
f 931 932 933
f 933 932 927
f 933 927 926
f 933 926 929
f 933 929 931
f 927 932 930
f 927 930 928
# Vertices: 8, normals: 0, texture coordinates: 0, faces: 12

o obj7
v -7.93480015 -4.30340004 -3.2737
v -7.98089981 -4.30340004 -3.1013999
v -8.27939987 -4.30340004 -3.2737
v -7.93480015 -1.4691 -3.2737
v -7.98089981 -1.4691 -3.1013999
v -8.27939987 -1.4691 -3.2737
v -8.10709953 -4.30340004 -2.97530007
v -8.10709953 -1.4691 -2.97530007
v -8.27939987 -4.30340004 -2.92910004
v -8.27939987 -1.4691 -2.92910004
v -8.45180035 -4.30340004 -2.97530007
v -8.45180035 -1.4691 -2.97530007
v -8.57789993 -4.30340004 -3.1013999
v -8.57789993 -1.4691 -3.1013999
v -8.62409973 -4.30340004 -3.2737
v -8.62409973 -1.4691 -3.2737
v -8.57789993 -4.30340004 -3.4461
v -8.57789993 -1.4691 -3.4461
v -8.45180035 -4.30340004 -3.57220006
v -8.45180035 -1.4691 -3.57220006
v -8.27939987 -4.30340004 -3.6184001
v -8.27939987 -1.4691 -3.6184001
v -8.10709953 -4.30340004 -3.57220006
v -8.10709953 -1.4691 -3.57220006
v -7.98089981 -4.30340004 -3.4461
v -7.98089981 -1.4691 -3.4461
usemtl mat9
f 934 935 936
f 937 938 935
f 937 935 934
f 939 938 937
f 935 940 936
f 938 941 940
f 938 940 935
f 939 941 938
f 940 942 936
f 941 943 942
f 941 942 940
f 939 943 941
f 942 944 936
f 943 945 944
f 943 944 942
f 939 945 943
f 944 946 936
f 945 947 946
f 945 946 944
f 939 947 945
f 946 948 936
f 947 949 948
f 947 948 946
f 939 949 947
f 948 950 936
f 949 951 950
f 949 950 948
f 939 951 949
f 950 952 936
f 951 953 952
f 951 952 950
f 939 953 951
f 952 954 936
f 953 955 954
f 953 954 952
f 939 955 953
f 954 956 936
f 955 957 956
f 955 956 954
f 939 957 955
f 956 958 936
f 957 959 958
f 957 958 956
f 939 959 957
f 958 934 936
f 959 937 934
f 959 934 958
f 939 937 959
# Vertices: 26, normals: 0, texture coordinates: 0, faces: 48

o obj8
v -7.93480015 -4.30340004 7.06619978
v -7.98089981 -4.30340004 7.23850012
v -8.27939987 -4.30340004 7.06619978
v -7.93480015 -1.4691 7.06619978
v -7.98089981 -1.4691 7.23850012
v -8.27939987 -1.4691 7.06619978
v -8.10709953 -4.30340004 7.36460018
v -8.10709953 -1.4691 7.36460018
v -8.27939987 -4.30340004 7.41079998
v -8.27939987 -1.4691 7.41079998
v -8.45180035 -4.30340004 7.36460018
v -8.45180035 -1.4691 7.36460018
v -8.57789993 -4.30340004 7.23850012
v -8.57789993 -1.4691 7.23850012
v -8.62409973 -4.30340004 7.06619978
v -8.62409973 -1.4691 7.06619978
v -8.57789993 -4.30340004 6.89379978
v -8.57789993 -1.4691 6.89379978
v -8.45180035 -4.30340004 6.7677002
v -8.45180035 -1.4691 6.7677002
v -8.27939987 -4.30340004 6.72149992
v -8.27939987 -1.4691 6.72149992
v -8.10709953 -4.30340004 6.7677002
v -8.10709953 -1.4691 6.7677002
v -7.98089981 -4.30340004 6.89379978
v -7.98089981 -1.4691 6.89379978
usemtl mat9
f 960 961 962
f 963 964 961
f 963 961 960
f 965 964 963
f 961 966 962
f 964 967 966
f 964 966 961
f 965 967 964
f 966 968 962
f 967 969 968
f 967 968 966
f 965 969 967
f 968 970 962
f 969 971 970
f 969 970 968
f 965 971 969
f 970 972 962
f 971 973 972
f 971 972 970
f 965 973 971
f 972 974 962
f 973 975 974
f 973 974 972
f 965 975 973
f 974 976 962
f 975 977 976
f 975 976 974
f 965 977 975
f 976 978 962
f 977 979 978
f 977 978 976
f 965 979 977
f 978 980 962
f 979 981 980
f 979 980 978
f 965 981 979
f 980 982 962
f 981 983 982
f 981 982 980
f 965 983 981
f 982 984 962
f 983 985 984
f 983 984 982
f 965 985 983
f 984 960 962
f 985 963 960
f 985 960 984
f 965 963 985
# Vertices: 26, normals: 0, texture coordinates: 0, faces: 48

o obj9
v -2.23659992 -4.12790012 7.48339987
v 2.23659992 -4.12790012 7.48339987
v 2.23659992 4.13789988 7.48339987
v -2.23659992 4.13789988 7.48339987
v 2.23659992 4.13789988 1.53180003
v -2.23659992 4.13789988 1.53180003
v 2.23659992 -4.12790012 1.53180003
v -2.23659992 -4.12790012 1.53180003
v -2.23659992 -4.11250019 2.29970002
v 2.23659992 -4.11250019 2.29970002
v 2.23659992 0.83710003 2.29970002
v -2.23659992 0.83710003 2.29970002
v 2.23659992 0.83710003 -3.65190005
v -2.23659992 0.83710003 -3.65190005
v 2.23659992 -4.11250019 -3.65190005
v -2.23659992 -4.11250019 -3.65190005
usemtl mat9
f 986 987 988
f 986 988 989
f 989 988 990
f 989 990 991
f 991 990 992
f 991 992 993
f 993 992 987
f 993 987 986
f 993 986 989
f 993 989 991
f 987 992 990
f 987 990 988
f 994 995 996
f 994 996 997
f 997 996 998
f 997 998 999
f 999 998 1000
f 999 1000 1001
f 1001 1000 995
f 1001 995 994
f 1001 994 997
f 1001 997 999
f 995 1000 998
f 995 998 996
# Vertices: 16, normals: 0, texture coordinates: 0, faces: 24

o obj10
v 1.47959995 3.80130005 6.34730005
v 2.41739988 3.80130005 6.34730005
v 2.41739988 3.80130005 6.05119991
v 1.47959995 3.80130005 6.05119991
v 2.41739988 2.2335 6.05119991
v 1.47959995 2.2335 6.05119991
v 2.41739988 2.2335 6.34730005
v 1.47959995 2.2335 6.34730005
v 1.47580004 2.87140012 6.95370007
v 2.41359997 2.87140012 6.95370007
v 2.41359997 3.22210002 6.95370007
v 1.47580004 3.22210002 6.95370007
v 2.41359997 3.22210002 5.38590002
v 1.47580004 3.22210002 5.38590002
v 2.41359997 2.87140012 5.38590002
v 1.47580004 2.87140012 5.38590002
usemtl mat9
f 1002 1003 1004
f 1002 1004 1005
f 1005 1004 1006
f 1005 1006 1007
f 1007 1006 1008
f 1007 1008 1009
f 1009 1008 1003
f 1009 1003 1002
f 1009 1002 1005
f 1009 1005 1007
f 1003 1008 1006
f 1003 1006 1004
f 1010 1011 1012
f 1010 1012 1013
f 1013 1012 1014
f 1013 1014 1015
f 1015 1014 1016
f 1015 1016 1017
f 1017 1016 1011
f 1017 1011 1010
f 1017 1010 1013
f 1017 1013 1015
f 1011 1016 1014
f 1011 1014 1012
# Vertices: 16, normals: 0, texture coordinates: 0, faces: 24

o obj11
v 1.41589999 2.29509997 4.92999983
v 2.35369992 2.29509997 4.92999983
v 2.35369992 3.96609998 4.92999983
v 1.41589999 3.96609998 4.92999983
v 2.35369992 3.96609998 1.83630002
v 1.41589999 3.96609998 1.83630002
v 2.35369992 2.29509997 1.83630002
v 1.41589999 2.29509997 1.83630002
usemtl mat9
f 1018 1019 1020
f 1018 1020 1021
f 1021 1020 1022
f 1021 1022 1023
f 1023 1022 1024
f 1023 1024 1025
f 1025 1024 1019
f 1025 1019 1018
f 1025 1018 1021
f 1025 1021 1023
f 1019 1024 1022
f 1019 1022 1020
# Vertices: 8, normals: 0, texture coordinates: 0, faces: 12

o obj12
v 2.19630003 -1.19920003 7.08640003
v 2.26230001 -1.19920003 7.08640003
v 2.26230001 0.074 7.08640003
v 2.19630003 0.074 7.08640003
v 2.26230001 0.074 6.18030024
v 2.19630003 0.074 6.18030024
v 2.26230001 -1.19920003 6.18030024
v 2.19630003 -1.19920003 6.18030024
v 2.19630003 -1.21070004 5.88910007
v 2.26230001 -1.21070004 5.88910007
v 2.26230001 0.0625 5.88910007
v 2.19630003 0.0625 5.88910007
v 2.26230001 0.0625 4.9829998
v 2.19630003 0.0625 4.9829998
v 2.26230001 -1.21070004 4.9829998
v 2.19630003 -1.21070004 4.9829998
v 2.19630003 -1.20949996 4.29920006
v 2.26230001 -1.20949996 4.29920006
v 2.26230001 0.0637 4.29920006
v 2.19630003 0.0637 4.29920006
v 2.26230001 0.0637 3.39310002
v 2.19630003 0.0637 3.39310002
v 2.26230001 -1.20949996 3.39310002
v 2.19630003 -1.20949996 3.39310002
v 2.19630003 -1.22099996 3.1019001
v 2.26230001 -1.22099996 3.1019001
v 2.26230001 0.0522 3.1019001
v 2.19630003 0.0522 3.1019001
v 2.26230001 0.0522 2.19580007
v 2.19630003 0.0522 2.19580007
v 2.26230001 -1.22099996 2.19580007
v 2.19630003 -1.22099996 2.19580007
v 2.19630003 -1.20949996 1.47300005
v 2.26230001 -1.20949996 1.47300005
v 2.26230001 0.0637 1.47300005
v 2.19630003 0.0637 1.47300005
v 2.26230001 0.0637 0.56690001
v 2.19630003 0.0637 0.56690001
v 2.26230001 -1.20949996 0.56690001
v 2.19630003 -1.20949996 0.56690001
v 2.19630003 -1.22099996 0.2757
v 2.26230001 -1.22099996 0.2757
v 2.26230001 0.0522 0.2757
v 2.19630003 0.0522 0.2757
v 2.26230001 0.0522 -0.6304
v 2.19630003 0.0522 -0.6304
v 2.26230001 -1.22099996 -0.6304
v 2.19630003 -1.22099996 -0.6304
v 2.19630003 -1.20949996 -1.27900004
v 2.26230001 -1.20949996 -1.27900004
v 2.26230001 0.0637 -1.27900004
v 2.19630003 0.0637 -1.27900004
v 2.26230001 0.0637 -2.18510008
v 2.19630003 0.0637 -2.18510008
v 2.26230001 -1.20949996 -2.18510008
v 2.19630003 -1.20949996 -2.18510008
v 2.19630003 -1.22099996 -2.4763
v 2.26230001 -1.22099996 -2.4763
v 2.26230001 0.0522 -2.4763
v 2.19630003 0.0522 -2.4763
v 2.26230001 0.0522 -3.38240004
v 2.19630003 0.0522 -3.38240004
v 2.26230001 -1.22099996 -3.38240004
v 2.19630003 -1.22099996 -3.38240004
v 2.19630003 -3.24889994 7.08640003
v 2.26230001 -3.24889994 7.08640003
v 2.26230001 -1.97570002 7.08640003
v 2.19630003 -1.97570002 7.08640003
v 2.26230001 -1.97570002 6.18030024
v 2.19630003 -1.97570002 6.18030024
v 2.26230001 -3.24889994 6.18030024
v 2.19630003 -3.24889994 6.18030024
v 2.19630003 -3.26040006 5.88910007
v 2.26230001 -3.26040006 5.88910007
v 2.26230001 -1.98720002 5.88910007
v 2.19630003 -1.98720002 5.88910007
v 2.26230001 -1.98720002 4.9829998
v 2.19630003 -1.98720002 4.9829998
v 2.26230001 -3.26040006 4.9829998
v 2.19630003 -3.26040006 4.9829998
v 2.19630003 -3.2592001 4.29920006
v 2.26230001 -3.2592001 4.29920006
v 2.26230001 -1.98599994 4.29920006
v 2.19630003 -1.98599994 4.29920006
v 2.26230001 -1.98599994 3.39310002
v 2.19630003 -1.98599994 3.39310002
v 2.26230001 -3.2592001 3.39310002
v 2.19630003 -3.2592001 3.39310002
v 2.19630003 -3.27069998 3.1019001
v 2.26230001 -3.27069998 3.1019001
v 2.26230001 -1.99749994 3.1019001
v 2.19630003 -1.99749994 3.1019001
v 2.26230001 -1.99749994 2.19580007
v 2.19630003 -1.99749994 2.19580007
v 2.26230001 -3.27069998 2.19580007
v 2.19630003 -3.27069998 2.19580007
v 2.19630003 -3.2592001 1.47300005
v 2.26230001 -3.2592001 1.47300005
v 2.26230001 -1.98599994 1.47300005
v 2.19630003 -1.98599994 1.47300005
v 2.26230001 -1.98599994 0.56690001
v 2.19630003 -1.98599994 0.56690001
v 2.26230001 -3.2592001 0.56690001
v 2.19630003 -3.2592001 0.56690001
v 2.19630003 -3.27069998 0.2757
v 2.26230001 -3.27069998 0.2757
v 2.26230001 -1.99749994 0.2757
v 2.19630003 -1.99749994 0.2757
v 2.26230001 -1.99749994 -0.6304
v 2.19630003 -1.99749994 -0.6304
v 2.26230001 -3.27069998 -0.6304
v 2.19630003 -3.27069998 -0.6304
v 2.19630003 -3.2592001 -1.27900004
v 2.26230001 -3.2592001 -1.27900004
v 2.26230001 -1.98599994 -1.27900004
v 2.19630003 -1.98599994 -1.27900004
v 2.26230001 -1.98599994 -2.18510008
v 2.19630003 -1.98599994 -2.18510008
v 2.26230001 -3.2592001 -2.18510008
v 2.19630003 -3.2592001 -2.18510008
v 2.19630003 -3.27069998 -2.4763
v 2.26230001 -3.27069998 -2.4763
v 2.26230001 -1.99749994 -2.4763
v 2.19630003 -1.99749994 -2.4763
v 2.26230001 -1.99749994 -3.38240004
v 2.19630003 -1.99749994 -3.38240004
v 2.26230001 -3.27069998 -3.38240004
v 2.19630003 -3.27069998 -3.38240004
usemtl mat9
f 1026 1027 1028
f 1026 1028 1029
f 1029 1028 1030
f 1029 1030 1031
f 1031 1030 1032
f 1031 1032 1033
f 1033 1032 1027
f 1033 1027 1026
f 1033 1026 1029
f 1033 1029 1031
f 1027 1032 1030
f 1027 1030 1028
f 1034 1035 1036
f 1034 1036 1037
f 1037 1036 1038
f 1037 1038 1039
f 1039 1038 1040
f 1039 1040 1041
f 1041 1040 1035
f 1041 1035 1034
f 1041 1034 1037
f 1041 1037 1039
f 1035 1040 1038
f 1035 1038 1036
f 1042 1043 1044
f 1042 1044 1045
f 1045 1044 1046
f 1045 1046 1047
f 1047 1046 1048
f 1047 1048 1049
f 1049 1048 1043
f 1049 1043 1042
f 1049 1042 1045
f 1049 1045 1047
f 1043 1048 1046
f 1043 1046 1044
f 1050 1051 1052
f 1050 1052 1053
f 1053 1052 1054
f 1053 1054 1055
f 1055 1054 1056
f 1055 1056 1057
f 1057 1056 1051
f 1057 1051 1050
f 1057 1050 1053
f 1057 1053 1055
f 1051 1056 1054
f 1051 1054 1052
f 1058 1059 1060
f 1058 1060 1061
f 1061 1060 1062
f 1061 1062 1063
f 1063 1062 1064
f 1063 1064 1065
f 1065 1064 1059
f 1065 1059 1058
f 1065 1058 1061
f 1065 1061 1063
f 1059 1064 1062
f 1059 1062 1060
f 1066 1067 1068
f 1066 1068 1069
f 1069 1068 1070
f 1069 1070 1071
f 1071 1070 1072
f 1071 1072 1073
f 1073 1072 1067
f 1073 1067 1066
f 1073 1066 1069
f 1073 1069 1071
f 1067 1072 1070
f 1067 1070 1068
f 1074 1075 1076
f 1074 1076 1077
f 1077 1076 1078
f 1077 1078 1079
f 1079 1078 1080
f 1079 1080 1081
f 1081 1080 1075
f 1081 1075 1074
f 1081 1074 1077
f 1081 1077 1079
f 1075 1080 1078
f 1075 1078 1076
f 1082 1083 1084
f 1082 1084 1085
f 1085 1084 1086
f 1085 1086 1087
f 1087 1086 1088
f 1087 1088 1089
f 1089 1088 1083
f 1089 1083 1082
f 1089 1082 1085
f 1089 1085 1087
f 1083 1088 1086
f 1083 1086 1084
f 1090 1091 1092
f 1090 1092 1093
f 1093 1092 1094
f 1093 1094 1095
f 1095 1094 1096
f 1095 1096 1097
f 1097 1096 1091
f 1097 1091 1090
f 1097 1090 1093
f 1097 1093 1095
f 1091 1096 1094
f 1091 1094 1092
f 1098 1099 1100
f 1098 1100 1101
f 1101 1100 1102
f 1101 1102 1103
f 1103 1102 1104
f 1103 1104 1105
f 1105 1104 1099
f 1105 1099 1098
f 1105 1098 1101
f 1105 1101 1103
f 1099 1104 1102
f 1099 1102 1100
f 1106 1107 1108
f 1106 1108 1109
f 1109 1108 1110
f 1109 1110 1111
f 1111 1110 1112
f 1111 1112 1113
f 1113 1112 1107
f 1113 1107 1106
f 1113 1106 1109
f 1113 1109 1111
f 1107 1112 1110
f 1107 1110 1108
f 1114 1115 1116
f 1114 1116 1117
f 1117 1116 1118
f 1117 1118 1119
f 1119 1118 1120
f 1119 1120 1121
f 1121 1120 1115
f 1121 1115 1114
f 1121 1114 1117
f 1121 1117 1119
f 1115 1120 1118
f 1115 1118 1116
f 1122 1123 1124
f 1122 1124 1125
f 1125 1124 1126
f 1125 1126 1127
f 1127 1126 1128
f 1127 1128 1129
f 1129 1128 1123
f 1129 1123 1122
f 1129 1122 1125
f 1129 1125 1127
f 1123 1128 1126
f 1123 1126 1124
f 1130 1131 1132
f 1130 1132 1133
f 1133 1132 1134
f 1133 1134 1135
f 1135 1134 1136
f 1135 1136 1137
f 1137 1136 1131
f 1137 1131 1130
f 1137 1130 1133
f 1137 1133 1135
f 1131 1136 1134
f 1131 1134 1132
f 1138 1139 1140
f 1138 1140 1141
f 1141 1140 1142
f 1141 1142 1143
f 1143 1142 1144
f 1143 1144 1145
f 1145 1144 1139
f 1145 1139 1138
f 1145 1138 1141
f 1145 1141 1143
f 1139 1144 1142
f 1139 1142 1140
f 1146 1147 1148
f 1146 1148 1149
f 1149 1148 1150
f 1149 1150 1151
f 1151 1150 1152
f 1151 1152 1153
f 1153 1152 1147
f 1153 1147 1146
f 1153 1146 1149
f 1153 1149 1151
f 1147 1152 1150
f 1147 1150 1148
# Vertices: 128, normals: 0, texture coordinates: 0, faces: 192

