# File generated by FabConvert.com - Free Image and 3D model conversion tools

mtllib Street.mtl

o obj1
v 2.72530007 -2.77839994 -6.51900005
v 2.72530007 -2.77839994 -8.3348999
v 2.32089996 -2.77839994 -8.3348999
v 2.32089996 -2.77839994 -6.51900005
usemtl mat5
f 1 2 3
f 1 3 4
# Vertices: 4, normals: 0, texture coordinates: 0, faces: 2

o obj2
v 8.53810024 -2.7730999 -0.1067
v -8.53810024 -2.773 -0.1067
v -8.53810024 -2.773 0.1067
v 8.53810024 -2.7730999 0.1067
usemtl mat5
f 5 6 7
f 5 7 8
# Vertices: 4, normals: 0, texture coordinates: 0, faces: 2

o obj3
v 0.84240001 -2.7730999 -3.30850005
v 0.84240001 -2.7730999 -3.09509993
v 3.42670012 -2.7730999 -3.09509993
v 3.42670012 -2.7730999 -3.30850005
usemtl mat5
f 9 10 11
f 9 11 12
# Vertices: 4, normals: 0, texture coordinates: 0, faces: 2

o obj4
v -3.42670012 -2.7730999 -3.30850005
v -3.42670012 -2.7730999 -3.09509993
v -0.84240001 -2.7730999 -3.09509993
v -0.84240001 -2.7730999 -3.30850005
usemtl mat5
f 13 14 15
f 13 15 16
# Vertices: 4, normals: 0, texture coordinates: 0, faces: 2

o obj5
v -3.42670012 -2.7730999 3.09509993
v -3.42670012 -2.7730999 3.30850005
v -0.84240001 -2.7730999 3.30850005
v -0.84240001 -2.7730999 3.09509993
usemtl mat5
f 17 18 19
f 17 19 20
# Vertices: 4, normals: 0, texture coordinates: 0, faces: 2

o obj6
v -7.69579983 -2.773 3.09509993
v -7.69579983 -2.773 3.30850005
v -5.11149979 -2.7730999 3.30850005
v -5.11149979 -2.7730999 3.09509993
usemtl mat5
f 21 22 23
f 21 23 24
# Vertices: 4, normals: 0, texture coordinates: 0, faces: 2

o obj7
v -7.69579983 -2.773 -3.30850005
v -7.69579983 -2.773 -3.09509993
v -5.11149979 -2.7730999 -3.09509993
v -5.11149979 -2.7730999 -3.30850005
usemtl mat5
f 25 26 27
f 25 27 28
# Vertices: 4, normals: 0, texture coordinates: 0, faces: 2

o obj8
v -8.53810024 -2.65310001 6.40360022
v -8.53810024 -2.65310001 8.53810024
v 8.53810024 -2.65310001 8.53810024
v 8.53810024 -2.65310001 6.40360022
usemtl mat5
f 29 30 31
f 29 31 32
# Vertices: 4, normals: 0, texture coordinates: 0, faces: 2

o obj9
v -8.53810024 -2.78430009 -8.53810024
v -8.53810024 -2.78430009 6.40360022
v 8.53810024 -2.78430009 6.40360022
v 8.53810024 -2.78430009 -8.53810024
usemtl mat5
f 33 34 35
f 33 35 36
# Vertices: 4, normals: 0, texture coordinates: 0, faces: 2

o obj10
v 0.84240001 -2.7730999 3.09509993
v 0.84240001 -2.7730999 3.30850005
v 3.42670012 -2.7730999 3.30850005
v 3.42670012 -2.7730999 3.09509993
usemtl mat5
f 37 38 39
f 37 39 40
# Vertices: 4, normals: 0, texture coordinates: 0, faces: 2

o obj11
v -8.22119999 -2.73210001 -6.82429981
v -8.22109985 2.07439995 -6.82369995
v -8.26099968 2.07690001 -6.73570013
v -8.26039982 -2.73210001 -6.73619986
v -8.35569954 2.07660007 -6.74560022
v -8.35630035 -2.73210001 -6.74630022
v -8.37660027 2.07410002 -6.84009981
v -8.37639999 -2.73210001 -6.84060001
v -8.29279995 -2.73210001 -6.88880014
v -8.29279995 2.07329988 -6.8888998
v -8.37639999 2.55139995 -5.36450005
v -8.29279995 2.59899998 -5.37290001
v -8.29279995 2.3657999 -6.56559992
v -8.37639999 2.31809998 -6.55740023
v -8.22119999 2.53530002 -5.36170006
v -8.22109985 2.30200005 -6.55459976
v -8.35620022 2.22510004 -6.54160023
v -8.35630035 2.45860004 -5.34810019
v -8.26060009 2.21519995 -6.53989983
v -8.26049995 2.44860005 -5.34630013
v -8.35480022 2.17409992 -6.70539999
v -8.26210022 2.16890001 -6.69729996
v -8.37660027 2.27760005 -6.71500015
v -8.29279995 2.32419991 -6.72980022
v -8.22099972 2.26200008 -6.71010017
v -8.22060013 2.21320009 -6.79650021
v -8.29269981 2.25239992 -6.85039997
v -8.37730026 2.22309995 -6.81010008
usemtl mat5
f 41 42 43
f 41 43 44
f 44 43 45
f 44 45 46
f 46 45 47
f 46 47 48
f 49 50 42
f 49 42 41
f 51 52 53
f 51 53 54
f 53 52 55
f 53 55 56
f 57 58 51
f 57 51 54
f 59 60 58
f 59 58 57
f 56 55 60
f 56 60 59
f 47 50 49
f 47 49 48
f 59 57 61
f 59 61 62
f 57 54 63
f 57 63 61
f 54 53 64
f 54 64 63
f 53 56 65
f 53 65 64
f 56 59 62
f 56 62 65
f 64 65 66
f 64 66 67
f 67 66 42
f 67 42 50
f 63 64 67
f 63 67 68
f 68 67 50
f 68 50 47
f 61 63 68
f 61 68 47
f 61 47 45
f 62 61 45
f 62 45 43
f 65 62 66
f 66 62 43
f 66 43 42
# Vertices: 28, normals: 0, texture coordinates: 0, faces: 46

o obj12
v -8.11250019 2.37150002 -5.01900005
v -8.12360001 2.46600008 -4.68030024
v -8.27950001 2.46690011 -4.5875001
v -8.27950001 2.34509993 -5.01410007
v -8.43540001 2.46600008 -4.68030024
v -8.44649982 2.37150002 -5.01900005
v -8.27950001 2.40849996 -5.53550005
v -8.07989979 2.42619991 -5.43330002
v -8.1239996 2.33960009 -5.36920023
v -8.27950001 2.30749989 -5.45629978
v -8.07989979 2.5697 -4.65110016
v -8.27950001 2.58949995 -4.54930019
v -8.47910023 2.42619991 -5.43330002
v -8.43500042 2.33960009 -5.36920023
v -8.47910023 2.5697 -4.65110016
v -8.47609997 2.49609995 -5.04180002
v -8.08279991 2.49609995 -5.04180002
usemtl mat5
f 69 70 71
f 69 71 72
f 72 71 73
f 72 73 74
f 75 76 77
f 75 77 78
f 79 80 71
f 79 71 70
f 81 75 78
f 81 78 82
f 80 83 73
f 80 73 71
f 84 81 82
f 84 82 74
f 85 79 70
f 85 70 69
f 76 85 69
f 76 69 77
f 83 84 74
f 83 74 73
f 78 72 74
f 78 74 82
f 77 69 72
f 77 72 78
# Vertices: 17, normals: 0, texture coordinates: 0, faces: 24

o obj13
v -8.0777998 2.41700006 -5.44969988
v -8.07699966 2.55579996 -5.4756999
v -8.07699966 2.70600009 -4.65749979
v -8.0777998 2.56699991 -4.63250017
v -8.28530025 2.5862999 -4.52750015
v -8.28530025 2.72539997 -4.55200005
v -8.49359989 2.70600009 -4.65749979
v -8.49279976 2.56699991 -4.63250017
v -8.28530025 2.80010009 -4.66690016
v -8.28530025 2.64720011 -5.50029993
v -8.41959953 2.63260007 -5.44810009
v -8.41959953 2.76799989 -4.7105999
v -8.15100002 2.76799989 -4.7105999
v -8.15100002 2.63260007 -5.44810009
v -8.28530025 2.39779997 -5.55480003
v -8.28530025 2.53660011 -5.58120012
v -8.49359989 2.55579996 -5.4756999
v -8.49279976 2.41700006 -5.44969988
usemtl mat5
f 86 87 88
f 86 88 89
f 90 91 92
f 90 92 93
f 89 88 91
f 89 91 90
f 94 95 96
f 94 96 97
f 98 99 95
f 98 95 94
f 100 101 87
f 100 87 86
f 93 92 102
f 93 102 103
f 95 99 87
f 95 87 101
f 99 98 88
f 99 88 87
f 94 97 92
f 94 92 91
f 97 96 102
f 97 102 92
f 96 95 101
f 96 101 102
f 98 94 91
f 98 91 88
f 103 102 101
f 103 101 100
# Vertices: 18, normals: 0, texture coordinates: 0, faces: 28

o obj14
v -8.34070015 -2.73210001 6.91330004
v -8.34090042 2.07439995 6.91260004
v -8.30080032 2.07690001 6.82460022
v -8.30150032 -2.73210001 6.82520008
v -8.20619965 2.07660007 6.83449984
v -8.20559978 -2.73210001 6.83519983
v -8.18529987 2.07410002 6.92910004
v -8.18550014 -2.73210001 6.92959976
v -8.26900005 -2.73210001 6.97779989
v -8.26910019 2.07329988 6.97779989
v -8.18550014 2.55139995 5.45349979
v -8.26910019 2.59899998 5.46190023
v -8.26910019 2.3657999 6.65450001
v -8.18550014 2.31809998 6.64629984
v -8.34070015 2.53530002 5.45060015
v -8.34070015 2.30200005 6.64359999
v -8.20569992 2.22510004 6.63049984
v -8.20559978 2.45860004 5.4369998
v -8.30130005 2.21519995 6.62879992
v -8.30140018 2.44860005 5.43529987
v -8.20709991 2.17409992 6.79440022
v -8.29979992 2.16890001 6.78620005
v -8.18519974 2.27769995 6.8039999
v -8.26910019 2.32419991 6.81869984
v -8.34090042 2.26200008 6.79899979
v -8.34140015 2.21320009 6.88539982
v -8.26920033 2.25239992 6.93930006
v -8.18459988 2.22309995 6.89900017
usemtl mat5
f 104 105 106
f 104 106 107
f 107 106 108
f 107 108 109
f 109 108 110
f 109 110 111
f 112 113 105
f 112 105 104
f 114 115 116
f 114 116 117
f 116 115 118
f 116 118 119
f 120 121 114
f 120 114 117
f 122 123 121
f 122 121 120
f 119 118 123
f 119 123 122
f 110 113 112
f 110 112 111
f 122 120 124
f 122 124 125
f 120 117 126
f 120 126 124
f 117 116 127
f 117 127 126
f 116 119 128
f 116 128 127
f 119 122 125
f 119 125 128
f 127 128 129
f 127 129 130
f 130 129 105
f 130 105 113
f 126 127 130
f 126 130 131
f 131 130 113
f 131 113 110
f 124 126 131
f 124 131 110
f 124 110 108
f 125 124 108
f 125 108 106
f 128 125 129
f 129 125 106
f 129 106 105
# Vertices: 28, normals: 0, texture coordinates: 0, faces: 46

o obj15
v -8.42490005 2.37150002 5.10790014
v -8.41380024 2.46600008 4.76919985
v -8.25790024 2.46690011 4.67640018
v -8.25790024 2.34509993 5.10309982
v -8.10200024 2.46600008 4.76919985
v -8.0909996 2.37150002 5.10790014
v -8.25790024 2.40849996 5.62440014
v -8.45750046 2.42619991 5.52229977
v -8.4133997 2.33960009 5.45819998
v -8.25790024 2.30749989 5.54519987
v -8.45750046 2.5697 4.73999977
v -8.25790024 2.58949995 4.63819981
v -8.05830002 2.42619991 5.52229977
v -8.10239983 2.33960009 5.45819998
v -8.05830002 2.5697 4.73999977
v -8.06120014 2.49609995 5.13079977
v -8.4545002 2.49609995 5.13079977
usemtl mat5
f 132 133 134
f 132 134 135
f 135 134 136
f 135 136 137
f 138 139 140
f 138 140 141
f 142 143 134
f 142 134 133
f 144 138 141
f 144 141 145
f 143 146 136
f 143 136 134
f 147 144 145
f 147 145 137
f 148 142 133
f 148 133 132
f 139 148 132
f 139 132 140
f 146 147 137
f 146 137 136
f 141 135 137
f 141 137 145
f 140 132 135
f 140 135 141
# Vertices: 17, normals: 0, texture coordinates: 0, faces: 24

o obj16
v -8.46529961 2.41700006 5.53859997
v -8.46619987 2.55579996 5.56470013
v -8.46619987 2.70600009 4.74639988
v -8.46529961 2.56699991 4.72149992
v -8.25790024 2.5862999 4.61639977
v -8.25790024 2.72539997 4.64090014
v -8.04959965 2.70600009 4.74639988
v -8.05039978 2.56699991 4.72149992
v -8.25790024 2.80010009 4.75579977
v -8.25790024 2.64720011 5.58930016
v -8.12360001 2.63260007 5.53700018
v -8.12360001 2.76799989 4.79949999
v -8.39220047 2.76799989 4.79949999
v -8.39220047 2.63260007 5.53700018
v -8.25790024 2.39779997 5.64370012
v -8.25790024 2.53660011 5.67019987
v -8.04959965 2.55579996 5.56470013
v -8.05039978 2.41700006 5.53859997
usemtl mat5
f 149 150 151
f 149 151 152
f 153 154 155
f 153 155 156
f 152 151 154
f 152 154 153
f 157 158 159
f 157 159 160
f 161 162 158
f 161 158 157
f 163 164 150
f 163 150 149
f 156 155 165
f 156 165 166
f 158 162 150
f 158 150 164
f 162 161 151
f 162 151 150
f 157 160 155
f 157 155 154
f 160 159 165
f 160 165 155
f 159 158 164
f 159 164 165
f 161 157 154
f 161 154 151
f 166 165 164
f 166 164 163
# Vertices: 18, normals: 0, texture coordinates: 0, faces: 28

o obj17
v 6.24989986 -2.77839994 -6.51900005
v 6.24989986 -2.77839994 -8.3348999
v 5.84560013 -2.77839994 -8.3348999
v 5.84560013 -2.77839994 -6.51900005
usemtl mat5
f 167 168 169
f 167 169 170
# Vertices: 4, normals: 0, texture coordinates: 0, faces: 2

o obj18
v 5.6624999 -2.77839994 -6.51900005
v 5.6624999 -2.77839994 -8.3348999
v 5.25810003 -2.77839994 -8.3348999
v 5.25810003 -2.77839994 -6.51900005
usemtl mat5
f 171 172 173
f 171 173 174
# Vertices: 4, normals: 0, texture coordinates: 0, faces: 2

o obj19
v 5.07509995 -2.77839994 -6.51900005
v 5.07509995 -2.77839994 -8.3348999
v 4.67059994 -2.77839994 -8.3348999
v 4.67059994 -2.77839994 -6.51900005
usemtl mat5
f 175 176 177
f 175 177 178
# Vertices: 4, normals: 0, texture coordinates: 0, faces: 2

o obj20
v 4.48759985 -2.77839994 -6.51900005
v 4.48759985 -2.77839994 -8.3348999
v 4.08319998 -2.77839994 -8.3348999
v 4.08319998 -2.77839994 -6.51900005
usemtl mat5
f 179 180 181
f 179 181 182
# Vertices: 4, normals: 0, texture coordinates: 0, faces: 2

o obj21
v 3.90019989 -2.77839994 -6.51900005
v 3.90019989 -2.77839994 -8.3348999
v 3.49580002 -2.77839994 -8.3348999
v 3.49580002 -2.77839994 -6.51900005
usemtl mat5
f 183 184 185
f 183 185 186
# Vertices: 4, normals: 0, texture coordinates: 0, faces: 2

o obj22
v 3.31270003 -2.77839994 -6.51900005
v 3.31270003 -2.77839994 -8.3348999
v 2.90840006 -2.77839994 -8.3348999
v 2.90840006 -2.77839994 -6.51900005
usemtl mat5
f 187 188 189
f 187 189 190
# Vertices: 4, normals: 0, texture coordinates: 0, faces: 2

o obj23
v 7.69579983 -2.7730999 3.09509993
v 5.11149979 -2.7730999 3.09509993
v 5.11149979 -2.7730999 3.30850005
v 7.69579983 -2.7730999 3.30850005
usemtl mat5
f 191 192 193
f 191 193 194
# Vertices: 4, normals: 0, texture coordinates: 0, faces: 2

o obj24
v -8.53810024 -2.50359988 6.36479998
v -8.53810024 -2.50359988 6.55919981
v 8.53810024 -2.50359988 6.55919981
v 8.53810024 -2.50359988 6.36479998
v -8.53810024 -2.80010009 6.55919981
v 8.53810024 -2.80010009 6.55919981
v 8.53810024 -2.78430009 6.36479998
v -8.53810024 -2.78430009 6.36479998
usemtl mat5
f 195 196 197
f 195 197 198
f 196 199 200
f 196 200 197
f 201 202 195
f 201 195 198
# Vertices: 8, normals: 0, texture coordinates: 0, faces: 6

o obj25
v 7.69579983 -2.7730999 -3.30850005
v 5.11149979 -2.7730999 -3.30850005
v 5.11149979 -2.7730999 -3.09509993
v 7.69579983 -2.7730999 -3.09509993
usemtl mat5
f 203 204 205
f 203 205 206
# Vertices: 4, normals: 0, texture coordinates: 0, faces: 2

o obj26
v -8.53810024 -2.50359988 -6.57329988
v -8.53810024 -2.50359988 -6.37890005
v 8.53810024 -2.50359988 -6.37890005
v 8.53810024 -2.50359988 -6.57329988
v -8.53810024 -2.80010009 -6.37890005
v 8.53810024 -2.80010009 -6.37890005
v 8.53810024 -2.78430009 -6.57329988
v -8.53810024 -2.78430009 -6.57329988
usemtl mat5
f 207 208 209
f 207 209 210
f 208 211 212
f 208 212 209
f 213 214 207
f 213 207 210
# Vertices: 8, normals: 0, texture coordinates: 0, faces: 6

o obj27
v -8.53810024 -2.65310001 -8.60470009
v -8.53810024 -2.65310001 -6.47020006
v 8.53810024 -2.65310001 -6.47020006
v 8.53810024 -2.65310001 -8.60470009
usemtl mat5
f 215 216 217
f 215 217 218
# Vertices: 4, normals: 0, texture coordinates: 0, faces: 2

